<svg width="40" height="40" viewBox="0 0 40 40" fill="none" xmlns="http://www.w3.org/2000/svg">
<path fill-rule="evenodd" clip-rule="evenodd" d="M13.8175 4.91505C11.9234 6.14384 10.8736 6.97136 10.4621 7.55974C9.886 8.3835 8.24883 12.0481 7.04612 15.206C5.18285 20.0984 4.21926 23.9712 4.02048 27.3665C3.93496 28.8269 4.10879 29.5697 4.70267 30.2821C5.17984 30.8546 5.4054 30.9696 7.30525 31.6092C8.16773 31.8996 9.59944 32.3945 10.4869 32.7092C13.3363 33.7193 15.396 34.1515 17.3174 34.1424C18.7332 34.1356 19.9924 33.9168 20.1868 33.6437C20.3712 33.3849 20.3671 33.3375 20.1354 33.0437C19.9448 32.802 19.9247 32.8002 18.9468 32.9374C17.036 33.2055 14.5309 32.9205 12.2506 32.1755C9.68152 31.3361 5.86278 29.9375 5.67712 29.7681C5.04946 29.1949 4.94588 28.3624 5.21985 26.0901C5.74499 21.7344 7.67926 15.7841 10.4864 9.8882C11.3442 8.08671 11.4185 7.97074 12.0131 7.5044C12.7407 6.93391 13.968 6.08806 14.9212 5.50001L15.5907 5.08703L16.8002 5.33444L18.0096 5.58186L19.1964 6.63083C19.849 7.20773 20.4149 7.7284 20.4537 7.78783C20.5849 7.98852 20.4177 8.18722 20.0228 8.29989C19.2498 8.52035 19.1998 8.4892 18.9187 7.61232L18.662 6.81153L17.5325 6.34686C16.2106 5.80288 15.9851 5.77692 15.7525 6.14141C15.4769 6.57329 15.6863 6.78922 16.7982 7.21966L17.7944 7.60525L18.097 8.64428C18.4178 9.74594 18.4431 10.2356 18.1791 10.2356C18.0468 10.2356 17.7075 9.56325 17.1891 8.27371C17.1347 8.13885 15.1651 7.41902 14.8502 7.41902C14.5027 7.41902 14.3055 7.60205 14.3055 7.92468C14.3055 8.24864 14.4286 8.33159 15.4599 8.70227L16.3454 9.02059L16.7752 10.1121C17.3712 11.6255 17.3117 11.6845 16.0947 10.7878C15.6412 10.4537 15.1596 10.1803 15.0245 10.1803C14.5057 10.1803 14.3564 10.7044 14.7519 11.1368C14.997 11.4047 15.0075 11.3885 14.4886 11.549C14.4119 11.5727 13.9641 11.5221 13.4936 11.4365C12.461 11.2485 12.1817 11.2992 12.0857 11.6918C12.0305 11.918 12.0696 12.031 12.2574 12.1872C12.3912 12.2984 12.6042 12.3902 12.7308 12.3911C13.2343 12.3948 13.2553 12.5091 12.9523 13.594C12.6286 14.7524 12.6293 15.5753 12.9552 17.9121C13.1758 19.4934 13.2087 21.7382 13.0231 22.5511C12.9468 22.8852 12.6476 23.6744 12.358 24.305C12.0684 24.9354 11.8315 25.5702 11.8315 25.7156C11.8315 26.0551 12.2432 26.2731 12.558 26.1002C12.9139 25.9046 14.0904 23.2612 14.0904 22.6571C14.0904 22.4258 14.7481 21.7988 15.406 21.4029C16.0612 21.0086 17.2254 20.6029 18.1291 20.4539C19.2913 20.2623 19.3474 20.2435 19.4732 20.0019C19.5655 19.8249 19.5521 19.713 19.4118 19.4932C19.2412 19.2259 19.1983 19.2153 18.5705 19.2861C17.299 19.4297 15.8605 19.8882 14.8829 20.4614L14.3309 20.7852L14.2659 20.536C14.2301 20.3989 14.1994 19.9637 14.1977 19.5689C14.196 19.174 14.0985 18.1565 13.9811 17.3078C13.6746 15.0921 13.7085 14.4913 14.2131 13.1902C14.3859 12.745 14.4914 12.6101 14.6676 12.6092C14.7939 12.6087 15.143 12.4906 15.4437 12.3469C15.9245 12.1169 16.0215 12.1033 16.2504 12.2336C16.5492 12.4035 17.4035 12.4348 17.6355 12.2843C17.7499 12.2099 17.9159 12.2996 18.2515 12.6173C18.9721 13.2993 19.0834 13.2579 20.5741 11.7543C21.2817 11.0404 21.9275 10.2965 22.0092 10.101C22.2089 9.62378 22.196 8.87413 21.9812 8.46833C21.8848 8.28608 21.7367 7.98786 21.6521 7.80561C21.5676 7.62336 21.4411 7.36634 21.371 7.23446C21.3009 7.10247 20.626 6.44604 19.8712 5.7757C18.8262 4.84757 18.4029 4.53951 18.0964 4.48407C17.875 4.44386 17.2408 4.3175 16.687 4.20307C16.1333 4.08864 15.5766 3.9973 15.45 4.00006C15.3234 4.00293 14.5887 4.4147 13.8175 4.91505ZM20.7595 9.18506C20.6708 9.24327 20.3421 9.34588 20.0289 9.41303C19.5381 9.5184 19.4687 9.56468 19.5257 9.74903C19.6349 10.1023 19.3702 10.7089 18.9526 11.0623L18.5598 11.3948L18.7772 11.6179L18.9945 11.841L20.0383 10.7501C20.8265 9.9262 21.0822 9.58766 21.0822 9.36742C21.0822 9.05527 21.0151 9.01739 20.7595 9.18506ZM27.8695 16.7062C27.6091 16.7588 26.9556 17.058 26.4173 17.3713C23.6329 18.9918 21.1397 20.51 20.8454 20.7643C20.6633 20.9217 20.3758 21.3508 20.2066 21.7179L19.8992 22.3854L19.8991 26.2592C19.899 30.6529 19.9228 30.8158 20.6894 31.6618C21.3053 32.3415 26.9995 35.7158 27.8671 35.9151C28.9017 36.1528 29.2869 36 32.6446 34.0183C34.3018 33.0403 35.8448 32.0606 36.0738 31.8414C36.3027 31.622 36.6048 31.194 36.7451 30.8903C36.9988 30.3406 37 30.3192 37 26.3065C37 22.2954 36.9987 22.2722 36.7454 21.7227C36.6052 21.4189 36.3274 21.0128 36.1278 20.8201C35.559 20.2707 29.8393 16.9269 29.1555 16.7441C28.5064 16.5705 28.5385 16.5714 27.8695 16.7062ZM27.8589 17.8415C27.6519 17.9188 26.8412 18.3639 26.0572 18.8307C25.2733 19.2975 23.9906 20.0582 23.2067 20.5212C21.5269 21.5133 21.4348 21.5878 21.177 22.1645C20.9977 22.5653 20.9794 22.9499 20.9794 26.3065C20.9794 30.4469 21.008 30.6302 21.7428 31.1924C22.2133 31.5523 27.1258 34.4505 27.7411 34.7312C28.5657 35.1073 28.836 35.0038 32.1583 33.0403C35.2581 31.2082 35.752 30.8236 35.8729 30.1471C35.9084 29.9483 35.9229 28.088 35.9051 26.0128L35.8727 22.2399L35.547 21.8268C35.3117 21.5286 34.4009 20.9272 32.2662 19.661C28.8347 17.6254 28.6459 17.5476 27.8589 17.8415ZM27.3719 23.6656C26.1312 25.3169 25.0744 26.7412 25.0234 26.8307C24.9689 26.9264 24.9791 27.102 25.048 27.2574C25.1589 27.5072 25.217 27.5215 26.1293 27.5215C26.6595 27.5215 27.1196 27.5652 27.1518 27.6187C27.184 27.6721 27.0082 28.5877 26.7612 29.6531C26.2636 31.7991 26.2773 31.9844 26.9273 31.9176C27.2124 31.8883 27.5315 31.5103 29.5987 28.7529C30.89 27.0307 31.9465 25.5349 31.9465 25.4288C31.9465 25.0149 31.6039 24.8706 30.6203 24.8706C29.9466 24.8706 29.6872 24.8323 29.6861 24.7325C29.6853 24.6567 29.8643 23.8079 30.0839 22.8465C30.5196 20.9385 30.5076 20.7547 29.9426 20.6958C29.6471 20.6651 29.4894 20.8472 27.3719 23.6656ZM27.6678 25.0771C27.1221 25.8082 26.6757 26.4336 26.6757 26.4669C26.6757 26.5001 27.0049 26.5274 27.4072 26.5274C27.8327 26.5274 28.1926 26.5828 28.2677 26.6599C28.44 26.8369 28.4286 27.3346 28.2354 28.0737C28.1481 28.4079 28.076 28.7496 28.0754 28.8332C28.0746 28.9167 28.5581 28.3363 29.1498 27.5431C29.7414 26.7501 30.2254 26.0728 30.2254 26.0382C30.2254 26.0035 29.89 25.9751 29.4801 25.9751C28.946 25.9751 28.687 25.926 28.5658 25.8016C28.3555 25.5856 28.3553 25.4537 28.5637 24.6276C28.6555 24.2638 28.7148 23.9171 28.6953 23.8571C28.6758 23.7971 28.2134 24.3462 27.6678 25.0771Z" fill="#FBFBFB"/>
</svg>
