<svg width="40" height="40" viewBox="0 0 40 40" fill="none" xmlns="http://www.w3.org/2000/svg">
<path fill-rule="evenodd" clip-rule="evenodd" d="M17.873 3.17C16.2701 3.37559 13.6423 3.9146 12.6872 4.23367C11.0932 4.76641 9.90446 5.46139 8.95467 6.41594C7.54599 7.83183 6.68335 9.47488 6.07619 11.8984C5.95546 12.3805 5.68457 13.1663 5.47425 13.6447C5.26393 14.1229 5.06774 14.6934 5.03841 14.9123C4.96933 15.4268 5.32844 16.1883 5.81475 16.5592C6.01105 16.7089 6.19969 16.9197 6.23401 17.0276C6.34815 17.3873 5.14575 19.531 3.85142 21.275C3.09994 22.2877 2.91066 22.7437 3.03543 23.2407C3.13469 23.6361 3.60252 24.0933 4.30946 24.4861C5.20463 24.9833 5.23353 25.0629 4.82267 25.896C4.37833 26.7969 4.38184 27.0886 4.84286 27.5354C5.15212 27.835 5.19761 27.9398 5.14872 28.2411C5.05074 28.8449 5.18688 29.1169 5.76512 29.4726L6.30139 29.8025L6.22817 30.8342C6.17099 31.6412 6.19267 31.9955 6.32785 32.4603C6.63435 33.5144 7.39571 34.1313 8.38992 34.1313C8.91631 34.1313 11.3343 33.5128 12.7522 33.0155C13.1814 32.865 13.622 32.7703 13.7316 32.805C14.2799 32.979 15.3851 34.7713 15.7862 36.1371C15.8785 36.4514 16.0085 36.7741 16.075 36.8543C16.1754 36.9751 17.4405 37 23.4923 37C30.0758 37 30.8129 36.983 31.037 36.8262C31.3949 36.5755 31.2929 36.0609 30.6917 35.0855C29.8486 33.7177 29.2851 31.8216 29.0332 29.5048C28.8297 27.6335 29.1896 25.6532 30.0141 24.1068C30.1972 23.7634 30.8145 22.8303 31.386 22.0333C32.5291 20.4392 33.0855 19.4036 33.359 18.3614C33.5315 17.7035 33.5307 17.6679 33.3399 17.457C32.9166 16.9894 32.4365 17.2589 32.217 18.0875C31.9992 18.9089 31.3962 20.0067 30.4658 21.275C28.3908 24.104 27.8273 25.6473 27.828 28.5C27.8283 29.7512 27.8808 30.2921 28.1075 31.3796C28.4164 32.8622 28.893 34.3191 29.3442 35.161C29.5851 35.6106 29.6113 35.7236 29.4853 35.772C29.4003 35.8046 26.5667 35.8312 23.1885 35.8312C18.4017 35.8312 17.0229 35.8019 16.9408 35.6984C16.8827 35.6254 16.7761 35.3744 16.7038 35.1406C16.5253 34.5642 15.9191 33.4522 15.4216 32.7887L15.0124 32.2431L15.6709 32.0112C17.1144 31.5029 17.9504 31.1305 18.508 30.7471C19.7507 29.8926 20.3231 28.2749 19.4941 27.9598C19.0853 27.8044 18.7668 28.0618 18.6776 28.6199C18.5888 29.1748 18.0713 29.706 17.2082 30.1282C16.6307 30.4107 11.1169 32.3278 10.4842 32.466C10.3088 32.5044 9.8306 32.6304 9.42143 32.7461C8.45656 33.0188 8.16345 33.0146 7.8358 32.7234C7.41729 32.3515 7.28157 31.6519 7.45236 30.7468C7.57989 30.0715 7.57521 29.9474 7.40581 29.504C7.27828 29.1702 7.08581 28.9202 6.80907 28.7291C6.40023 28.4467 6.29948 28.2514 6.49885 28.1281C6.5573 28.092 6.60513 27.9256 6.60513 27.7583C6.60513 27.5349 6.49237 27.3576 6.1813 27.0913L5.75737 26.7286L5.99394 26.2596C6.16164 25.9272 6.23082 25.5994 6.23178 25.1336C6.23306 24.5479 6.19852 24.44 5.91433 24.1408C5.73898 23.9562 5.37987 23.6952 5.1162 23.5606C4.85264 23.4261 4.51915 23.2206 4.37514 23.1041L4.11339 22.8921L4.70938 22.1101C6.12593 20.2516 7.45533 17.8659 7.45533 17.1823C7.45533 16.6764 7.12747 16.0618 6.6724 15.7149C6.46793 15.559 6.27163 15.3398 6.23603 15.2279C6.19735 15.1059 6.34008 14.6267 6.59206 14.0325C6.82342 13.487 7.14182 12.5386 7.29953 11.925C7.87491 9.68801 8.99197 7.82301 10.4408 6.6805C12.0953 5.37586 16.2703 4.34098 20.5235 4.18129L22.2734 4.11563L22.4301 3.83566C22.5707 3.58469 22.5682 3.527 22.4048 3.27784L22.2228 3L20.6045 3.0136C19.7145 3.02104 18.4853 3.09148 17.873 3.17ZM28.3615 3.31078C28.1957 3.50787 28.0514 3.87879 27.9673 4.32409C27.8534 4.92812 27.7917 5.04871 27.5276 5.18524C27.2319 5.33814 27.1978 5.32857 26.6048 4.92599C25.715 4.32186 25.2972 4.3073 24.686 4.85938C24.2781 5.22774 24.2651 5.23125 23.2935 5.23125C22.3283 5.23125 22.3072 5.23677 21.9668 5.57709C21.6888 5.85494 21.5963 6.06414 21.4956 6.64193C21.3132 7.68966 21.2393 7.82609 20.75 8.01819L20.3145 8.18925L19.6257 7.71771C18.3625 6.85294 18.0468 6.85921 17.0937 7.76786C15.9831 8.82686 15.9301 9.17344 16.7013 10.3313C16.9933 10.7695 17.2299 11.1998 17.2273 11.2875C17.2246 11.3752 17.1411 11.6102 17.0416 11.8097C16.87 12.1539 16.8116 12.1824 15.9043 12.3663C15.1053 12.5282 14.8996 12.6131 14.6555 12.8818C14.3758 13.1896 14.3633 13.251 14.3633 14.3156C14.3633 15.3802 14.3758 15.4417 14.6555 15.7495C14.899 16.0174 15.0985 16.1002 15.8511 16.2454C16.348 16.3413 16.8063 16.4595 16.8698 16.5083C16.9332 16.5571 17.0479 16.7872 17.1247 17.0198C17.2635 17.4403 17.2612 17.4475 16.7172 18.276C15.9423 19.4559 15.9845 19.7901 17.0385 20.8175C18.0003 21.7551 18.3051 21.769 19.5509 20.9318L20.3281 20.4095L20.7936 20.602L21.2592 20.7944L21.4486 21.752C21.6057 22.5468 21.6952 22.768 21.9753 23.0547C22.3116 23.3988 22.3162 23.4 23.3779 23.4C24.3672 23.4 24.4663 23.3806 24.7682 23.1265C25.0987 22.8485 25.2126 22.5574 25.4227 21.4533C25.536 20.8579 25.5583 20.8269 26.0166 20.6306L26.4926 20.4266L27.1289 20.8585C28.5128 21.7981 28.8278 21.774 29.9187 20.6442C30.8407 19.6894 30.8594 19.4323 30.0921 18.2572C29.7998 17.8097 29.5627 17.3852 29.5652 17.3139C29.5676 17.2427 29.6569 17.0205 29.7636 16.8204C29.9458 16.4781 30.014 16.4446 30.9002 16.2615C31.5844 16.1201 31.9135 15.9961 32.1007 15.8089L32.3585 15.5511L32.8144 15.8648C33.6922 16.4685 34.1318 16.3844 35.0106 15.4451C35.6727 14.7375 35.6884 14.3557 35.0937 13.4358C34.7165 12.8522 34.6869 12.7578 34.7931 12.4767C34.8995 12.1948 34.9832 12.1512 35.6632 12.024C36.2218 11.9196 36.4907 11.8089 36.7077 11.5936C36.9828 11.321 37 11.2483 37 10.363C37 9.05742 36.8638 8.89953 35.5078 8.63433C34.992 8.5335 34.9035 8.47836 34.7949 8.19084C34.6805 7.88782 34.7034 7.81493 35.0916 7.24331C35.7027 6.34358 35.6803 5.96363 34.9705 5.18705C34.1485 4.28796 33.6913 4.23983 32.6473 4.94278C32.156 5.27354 32.0634 5.30095 31.7874 5.19683C31.5111 5.09259 31.4593 4.99548 31.3014 4.28573C31.0412 3.11677 30.8894 3 29.6281 3C28.6476 3 28.6168 3.00754 28.3615 3.31078ZM29.1902 4.30156C29.1656 4.37466 29.0966 4.71126 29.037 5.04978C28.8899 5.88543 28.8374 5.95428 28.1165 6.25986C27.1005 6.69059 27.0788 6.68942 26.2732 6.15382C25.5797 5.6928 25.5353 5.67824 25.3722 5.85844C25.2158 6.0311 25.2149 6.12258 25.3614 6.88801C25.4498 7.35009 25.5222 7.74173 25.5222 7.75851C25.5222 7.77519 25.7403 7.88229 26.0068 7.99651L26.4914 8.20413L27.2694 7.67925C27.8839 7.26477 28.1985 7.12813 28.7654 7.02943C30.1621 6.78622 31.2602 7.07394 32.1203 7.90854C32.7811 8.54965 33.1077 9.35396 33.1037 10.3304C33.1002 11.1808 32.9438 11.6819 32.4653 12.3745C32.1997 12.7591 32.1967 12.7819 32.3639 13.1343C32.4588 13.3342 32.5364 13.663 32.5364 13.8651C32.5364 14.1935 32.5998 14.2745 33.1351 14.6298L33.7336 15.0271L34.0359 14.7245L34.3381 14.4219L33.8553 13.7313C33.3152 12.9585 33.3104 12.8839 33.7365 11.8847C34.0455 11.16 34.0959 11.1193 34.8745 10.9643C35.8489 10.7703 35.831 10.7821 35.831 10.3328C35.831 9.9275 35.8262 9.92283 35.2944 9.80882C34.9993 9.74549 34.6698 9.69375 34.5622 9.69375C34.2326 9.69375 33.9464 9.35396 33.6602 8.62296C33.5098 8.23844 33.3866 7.86529 33.3866 7.79368C33.3866 7.72196 33.5779 7.38175 33.8117 7.0375C34.0455 6.69325 34.2368 6.3456 34.2368 6.26496C34.2368 6.18431 34.1273 6.01538 33.9932 5.88947L33.7497 5.66071L33.0401 6.13661C32.6498 6.3983 32.2754 6.6125 32.208 6.6125C31.9057 6.6125 30.5819 6.00921 30.4619 5.81679C30.3887 5.69928 30.2701 5.28044 30.1983 4.88594L30.0681 4.16875H29.6516C29.4133 4.16875 29.2159 4.22559 29.1902 4.30156ZM14.0968 6.18197C13.1175 6.43878 12.116 6.85082 11.4813 7.25807C10.4739 7.90439 9.23248 9.50994 8.77677 10.7563C8.42372 11.7217 8.20341 12.7119 8.32488 12.7869C8.47239 12.8781 9.27605 13.009 9.33376 12.9512C9.35767 12.9274 9.47489 12.5552 9.59445 12.1242C9.9289 10.9178 10.4842 9.88319 11.2276 9.08122C12.0106 8.23643 12.7418 7.83629 14.3582 7.36783C14.9622 7.19284 15.5034 7.00265 15.5608 6.94528C15.7328 6.77326 15.6787 6.26719 15.4721 6.1161C15.2228 5.93388 15.0029 5.9444 14.0968 6.18197ZM22.6085 7.21866C22.3218 8.58301 22.2877 8.67364 22.0117 8.80284C20.9575 9.29648 20.4944 9.48125 20.3113 9.48125C20.1951 9.48125 19.6925 9.2101 19.1943 8.8786L18.2887 8.27606L17.867 8.68767C17.6351 8.91409 17.4453 9.13966 17.4453 9.18885C17.4453 9.23804 17.6776 9.62278 17.9614 10.0438C18.2453 10.4649 18.509 10.9089 18.5474 11.0305C18.592 11.1717 18.5015 11.5068 18.297 11.9578C18.1207 12.3463 17.9766 12.7358 17.9766 12.8233C17.9766 13.0911 17.544 13.2818 16.5106 13.4694L15.5227 13.6488L15.5541 14.2993L15.5854 14.9498L16.6146 15.1717C17.656 15.3962 17.9766 15.5484 17.9766 15.8184C17.9766 15.9002 18.1201 16.2835 18.2955 16.6701C18.4708 17.0568 18.6143 17.4078 18.6143 17.4501C18.6143 17.4925 18.3521 17.9281 18.0317 18.4183C17.7113 18.9084 17.4482 19.3594 17.4472 19.4206C17.4461 19.4818 17.6342 19.7163 17.8652 19.9418L18.2849 20.3517L19.1789 19.7508C19.6706 19.4204 20.174 19.15 20.2977 19.15C20.4926 19.15 20.9468 19.3298 22.0117 19.8284C22.2877 19.9576 22.3218 20.0482 22.6085 21.4126L22.7825 22.2408L23.4273 22.2095L24.0721 22.1781L24.2698 21.1156C24.471 20.0337 24.6677 19.6858 25.0823 19.678C25.1781 19.6761 25.4956 19.557 25.7879 19.4133C26.0802 19.2695 26.4154 19.1515 26.5328 19.151C26.6502 19.1504 27.1459 19.4175 27.6343 19.7445L28.5225 20.3389L28.9792 19.8908L29.4358 19.4427L29.0738 18.898C28.8747 18.5982 28.5859 18.1475 28.4322 17.8961L28.1526 17.4393L28.4747 16.7274C28.6518 16.336 28.8283 15.908 28.867 15.7765C28.9621 15.4532 29.1364 15.3766 30.2503 15.1685C30.7756 15.0702 31.2412 14.9338 31.2848 14.8653C31.3869 14.7048 31.3878 13.9273 31.2861 13.7697C31.2431 13.7032 30.8015 13.5697 30.3046 13.4732C29.1616 13.2509 28.959 13.1646 28.8672 12.8612C28.8264 12.7261 28.6532 12.2929 28.4823 11.8985C28.1286 11.0824 28.1074 11.1747 28.9324 9.94801L29.4404 9.19289L28.9814 8.7426L28.5225 8.29231L27.6343 8.88678C27.1459 9.21371 26.6741 9.4804 26.5859 9.47944C26.2952 9.47626 24.6373 8.75524 24.5461 8.59236C24.497 8.5046 24.3707 7.98738 24.2656 7.44295L24.0744 6.45312L23.4285 6.42178L22.7825 6.39044L22.6085 7.21866ZM30.4031 8.48622C30.7771 8.96158 30.6971 9.44746 30.0921 10.3741C29.7998 10.8216 29.5607 11.2361 29.5607 11.295C29.5607 11.354 29.6545 11.5862 29.7692 11.8109C29.9435 12.1524 30.0419 12.2271 30.3673 12.265C30.8586 12.3224 31.3232 12.0277 31.6621 11.4437C31.867 11.0907 31.9017 10.8986 31.875 10.2672C31.8373 9.37787 31.5222 8.81708 30.8466 8.43745C30.2921 8.12593 30.1334 8.14335 30.4031 8.48622ZM22.1288 10.5401C18.7022 11.8095 18.4998 16.4147 21.8026 17.9664C22.3009 18.2004 22.5362 18.2414 23.3989 18.2439C24.3303 18.2467 24.467 18.2192 25.1176 17.899C27.5612 16.6963 28.1505 13.6022 26.3137 11.6186C25.5418 10.785 24.7239 10.4125 23.5561 10.3626C22.8992 10.3345 22.5747 10.3749 22.1288 10.5401ZM22.5432 11.6568C20.5512 12.2971 19.9753 15.0024 21.5389 16.375C22.1291 16.8931 22.5972 17.0618 23.4498 17.0637C24.362 17.0656 24.88 16.8261 25.5091 16.1115C26.1515 15.3819 26.346 14.457 26.068 13.4539C25.9197 12.9181 25.2136 12.095 24.6604 11.8128C24.1092 11.5317 23.1521 11.4612 22.5432 11.6568ZM23.0513 13.846C22.7763 14.0061 22.8008 14.6455 23.0878 14.7991C23.646 15.0977 24.2266 14.5186 23.8876 14.0012C23.7017 13.7178 23.3756 13.6572 23.0513 13.846ZM7.86864 14.3328C7.77448 14.358 7.64716 14.4891 7.58563 14.6242C7.30368 15.2427 8.19586 15.7533 8.56751 15.1862C8.7621 14.8893 8.65306 14.4432 8.35815 14.3301C8.17301 14.2591 8.14421 14.2593 7.86864 14.3328Z" fill="#FBFBFB"/>
</svg>
