<svg width="40" height="40" viewBox="0 0 40 40" fill="none" xmlns="http://www.w3.org/2000/svg">
<path d="M19.123 5.04535C19.4193 4.99351 19.8858 4.98534 20.3802 5.02484C20.9108 5.06725 21.3927 5.15822 21.6609 5.26264C21.6609 5.26264 21.6626 5.26329 21.6663 5.26488C21.6698 5.26643 21.6745 5.26858 21.6806 5.27133C21.6928 5.27689 21.7086 5.28433 21.7284 5.29389C21.7679 5.313 21.8201 5.33902 21.8851 5.37211C22.0151 5.43822 22.1925 5.53068 22.4144 5.64818C22.8494 5.87842 23.4355 6.1941 24.1229 6.56752C25.4972 7.31415 27.2718 8.28935 29.0424 9.26937C30.813 10.2494 32.5784 11.2336 33.9346 11.9984C34.6129 12.3808 35.1876 12.7078 35.609 12.9516C35.8246 13.0763 35.9943 13.176 36.116 13.2491C36.177 13.2856 36.225 13.315 36.2603 13.3372C36.278 13.3483 36.2916 13.3571 36.3017 13.3638C36.3093 13.3688 36.3133 13.3715 36.3146 13.3725C36.6645 13.639 36.9109 14.1094 36.9805 14.6553C37.0498 15.1996 36.9333 15.7462 36.6513 16.1372C36.4442 16.4242 36.1434 16.6677 34.7376 17.4606L34.4449 17.6248L32.1685 18.8956L32.1022 23.4343C32.0724 25.4792 32.0545 26.521 32.0111 27.1355C31.9897 27.4384 31.9633 27.6155 31.9323 27.746C31.9099 27.8408 31.8827 27.9206 31.8436 28.0184L31.7993 28.1255C31.031 29.9435 29.4494 31.2657 27.6816 31.6145L26.5066 31.8463L26.4512 33.5529C26.4308 34.179 26.4151 34.435 26.3805 34.5816C26.3738 34.6099 26.3677 34.6273 26.3632 34.6382C26.3589 34.6484 26.3547 34.6562 26.3492 34.6646C26.3344 34.687 26.3077 34.7194 26.2294 34.7979C25.9604 35.0674 25.4979 35.0674 25.2289 34.7979C25.1503 34.7191 25.1238 34.6869 25.1091 34.6647C25.1037 34.6565 25.0995 34.6487 25.0952 34.6384C25.0906 34.6274 25.0845 34.6097 25.0778 34.581C25.043 34.4325 25.0273 34.1729 25.0067 33.5392L24.948 31.7246L18.5253 31.723C15.3211 31.7222 13.7245 31.7185 12.7502 31.6337C12.2735 31.5923 11.9683 31.5328 11.7093 31.452C11.4458 31.3698 11.2111 31.26 10.8619 31.0904C10.5303 30.9293 10.0399 30.5495 9.56778 30.0867C9.15341 29.6804 8.80652 29.2625 8.62154 28.9514L8.58678 28.8907L8.55533 28.8307L8.43664 28.5914C8.18339 28.0762 8.07017 27.7974 8.00023 27.2519C7.91316 26.5727 7.90013 25.5197 7.87394 23.3003L7.82165 18.8681L5.7544 17.7327C4.74925 17.1806 4.19691 16.861 3.84507 16.6047C3.5229 16.3701 3.38401 16.2002 3.21753 15.93C3.0807 15.708 2.99261 15.3431 3.00049 14.932C3.00837 14.5215 3.11024 14.1553 3.25803 13.9313C3.44301 13.6509 3.58014 13.4822 4.02793 13.1798C4.51095 12.8537 5.31408 12.4013 6.83023 11.5667C8.27886 10.7693 11.2546 9.12165 13.4435 7.90502C15.6268 6.69155 16.8631 6.01293 17.6516 5.61625C18.3822 5.2487 18.6979 5.13897 19.006 5.06947L19.0676 5.05609L19.123 5.04535ZM9.94071 20.1827C9.76589 20.1828 9.64278 20.2628 9.57508 20.3235L9.54948 20.3481C9.50524 20.3935 9.47678 20.4387 9.4599 20.4697L9.44665 20.4954C9.41968 20.5515 9.40754 20.6008 9.40303 20.6201C9.39786 20.6421 9.39393 20.664 9.39096 20.6836L9.38443 20.734C9.37774 20.7946 9.37279 20.872 9.36876 20.9567C9.36053 21.1297 9.3544 21.3737 9.35045 21.6677C9.34252 22.2578 9.34293 23.0684 9.35337 23.9578C9.35337 23.9578 9.24566 25.6434 9.33137 26.75C9.34802 26.9651 9.37361 27.1422 9.43107 27.35C9.44752 27.4095 9.46998 27.4723 9.48093 27.5C9.57148 27.7294 9.64254 27.9068 9.78005 28.15C10.3118 29.0905 10.9586 29.5791 11.8432 29.9895C11.9991 30.0618 12.1573 30.1281 12.4011 30.1763L12.4892 30.1922C12.702 30.2276 12.9697 30.2504 13.3407 30.2673C14.1897 30.306 15.6856 30.3173 18.5329 30.3348L24.9876 30.3743V22.8794L23.292 23.8235C21.5261 24.8068 20.5667 25.0465 19.4933 24.9123C18.7069 24.8141 18.3478 24.696 15.4454 23.1038L14.8302 22.7653L14.0978 22.3606C13.0483 21.7798 12.0845 21.2515 11.3768 20.8681C11.0233 20.6766 10.7323 20.5205 10.5262 20.4119C10.4235 20.3577 10.3393 20.3141 10.2781 20.2834C10.2481 20.2684 10.2193 20.2542 10.1947 20.243C10.1835 20.2379 10.1662 20.2301 10.1472 20.2227C10.1431 20.2211 10.1367 20.2186 10.1288 20.2158L10.1008 20.2066L10.0704 20.1983C10.053 20.1941 10.0298 20.1894 10.0025 20.1863L9.99387 20.1853L9.9853 20.1848L9.95736 20.1832L9.94898 20.1827H9.94071ZM30.5542 20.4698C30.4733 20.3453 30.2926 20.1758 30.0145 20.1961L30.0081 20.1966L30.0017 20.1974L29.9771 20.2002L29.971 20.201L29.9651 20.2019C29.9203 20.209 29.8847 20.2199 29.8702 20.2244C29.8421 20.233 29.8156 20.2429 29.7939 20.2514C29.7497 20.2687 29.7001 20.2906 29.6492 20.3142C29.5466 20.3618 29.4156 20.4271 29.2674 20.5037C28.9698 20.6577 28.5856 20.8665 28.1853 21.0936L26.4708 22.0666V26.0383C26.4708 27.8141 26.4716 28.7537 26.5046 29.2435C26.513 29.369 26.5244 29.4801 26.5416 29.5757C26.5577 29.6657 26.585 29.7787 26.6436 29.886L26.657 29.9096C26.7267 30.0266 26.8341 30.1314 26.9842 30.1899L27.0081 30.1987C27.1266 30.2394 27.2332 30.2372 27.2609 30.2372C27.5663 30.2372 27.8763 30.1388 28.1546 30.0074C28.4394 29.8729 28.7264 29.6869 28.9954 29.4729C29.5275 29.0494 30.0388 28.4753 30.335 27.8753C30.4073 27.7289 30.4772 27.5794 30.5317 27.3909C30.5856 27.2042 30.6187 26.9994 30.6418 26.7357C30.6868 26.2221 30.6999 25.3992 30.7193 23.8971V23.8965L30.729 23.0234V23.0227C30.7359 22.2356 30.7341 21.6919 30.7201 21.3276C30.711 21.0923 30.696 20.8974 30.6652 20.7529C30.6518 20.6903 30.626 20.5887 30.5665 20.4896L30.5542 20.4698ZM20.6616 6.4641C20.3888 6.40618 20.1493 6.4309 19.9919 6.4309C19.462 6.4309 18.9404 6.51262 18.5581 6.7099L18.5165 6.73139L18.5152 6.73266C18.1241 6.9409 16.0245 8.09874 13.7123 9.38138C11.2882 10.7261 8.28571 12.391 7.04006 13.0813C6.4121 13.4293 5.83834 13.7629 5.41896 14.021C5.21046 14.1494 5.0337 14.2629 4.90592 14.3522C4.84389 14.3955 4.78235 14.4407 4.73211 14.4835C4.70809 14.504 4.67305 14.5354 4.63932 14.5744C4.62245 14.5938 4.59479 14.6277 4.56872 14.6735C4.55032 14.7058 4.50717 14.7874 4.49657 14.9015L4.49589 14.9085L4.4956 14.9156L4.49394 14.952L4.49443 14.9649L4.49531 14.986L4.4955 14.9928L4.49609 14.9996C4.505 15.1039 4.54154 15.1792 4.5587 15.2115L4.57632 15.242C4.59373 15.2702 4.61011 15.2911 4.62033 15.3036C4.64783 15.337 4.67386 15.3609 4.68586 15.3715L4.70504 15.3879C4.72385 15.4034 4.74116 15.4161 4.75285 15.4245C4.78717 15.4493 4.82963 15.4773 4.87349 15.5053C4.96403 15.5632 5.0924 15.6416 5.2506 15.7361C5.56843 15.926 6.02263 16.1907 6.57172 16.5069C7.67066 17.1397 9.15821 17.984 10.7155 18.8601C13.8249 20.6094 17.2309 22.4964 18.3719 23.0793C18.6928 23.2431 18.9545 23.3643 19.2454 23.426C19.537 23.4879 19.8237 23.4827 20.1802 23.4624C20.5661 23.4405 20.8658 23.4032 21.2441 23.2616C21.595 23.1302 22.0045 22.9119 22.6258 22.5666C23.014 22.351 23.3734 22.1494 23.6398 21.9984C23.7594 21.9306 23.8612 21.8723 23.9389 21.8274L23.9679 21.8565L24.1782 21.6747C24.3559 21.5212 24.3708 21.3252 24.367 21.234L24.3647 21.2018L24.3607 21.1721C24.3499 21.1056 24.3296 21.057 24.3214 21.0382L24.3052 21.0037C24.2889 20.9721 24.2735 20.9489 24.2669 20.939C24.256 20.9227 24.2443 20.9069 24.2332 20.8924L24.2026 20.8538L24.1706 20.8156C24.136 20.7749 24.094 20.7275 24.0471 20.6755C23.9201 20.5348 23.7359 20.338 23.5101 20.1009C23.0577 19.6257 22.4279 18.9784 21.7298 18.2733C20.4725 17.0031 19.8644 16.3857 19.5632 16.0199C19.4334 15.8623 19.3889 15.784 19.3725 15.7472L19.3671 15.7338C19.3631 15.7231 19.361 15.7149 19.3593 15.6986C19.3569 15.6766 19.3558 15.6446 19.3558 15.582C19.3558 15.2866 19.3926 15.1595 19.4276 15.0937C19.4548 15.0425 19.5084 14.9753 19.6923 14.8799L19.6922 14.8798L19.7527 14.8493C19.8886 14.7824 19.9261 14.7811 19.9414 14.7814C19.955 14.7817 20.0348 14.7855 20.2532 14.9373C20.7122 15.2564 21.4543 15.9836 22.957 17.4917C23.7161 18.2536 24.4223 18.9474 24.9491 19.4519C25.2119 19.7036 25.433 19.9109 25.5946 20.0566C25.6745 20.1286 25.7452 20.1904 25.8014 20.2362C25.829 20.2586 25.861 20.2835 25.8932 20.3055C25.908 20.3156 25.9345 20.3331 25.9674 20.3501C25.9703 20.3517 25.9801 20.3568 25.9902 20.3615C26.0046 20.3682 26.0233 20.3762 26.0457 20.3838C26.0894 20.3988 26.1522 20.4144 26.227 20.4144C26.281 20.4144 26.3273 20.4061 26.3588 20.3987C26.3906 20.3911 26.4145 20.3826 26.4156 20.3822L26.4155 20.3821C26.4403 20.3736 26.4628 20.3644 26.4774 20.3582C26.5102 20.3444 26.5477 20.3269 26.5859 20.3085C26.6634 20.2712 26.7672 20.2186 26.891 20.1544C27.1396 20.0255 27.4831 19.8423 27.8883 19.6236C28.6994 19.1856 29.7661 18.6 30.8332 18.0084C31.9004 17.4168 32.9697 16.8181 33.7862 16.3538C34.1941 16.1219 34.5409 15.9225 34.7932 15.7738C34.9092 15.7054 35.0073 15.6462 35.0833 15.5991L35.1172 15.633L35.3287 15.4232C35.4863 15.2668 35.524 15.0565 35.4841 14.8822C35.4571 14.7644 35.3995 14.678 35.362 14.6296L35.3473 14.6112L35.3177 14.5771C35.2461 14.4986 35.1575 14.4282 35.0765 14.3684C34.8783 14.2221 34.5593 14.0208 34.0955 13.7456C33.1599 13.1908 31.5616 12.2935 28.9725 10.8587C24.7486 8.51813 22.7813 7.41888 21.761 6.90863C21.2558 6.65597 20.9342 6.52199 20.6616 6.4641Z" fill="#FBFBFB"/>
</svg>
