<svg width="40" height="40" viewBox="0 0 40 40" fill="none" xmlns="http://www.w3.org/2000/svg">
<path fill-rule="evenodd" clip-rule="evenodd" d="M19.0557 4.05373C11.7039 4.64838 5.57812 10.2326 4.20466 17.592C3.91245 19.1578 3.93687 22.1492 4.25411 23.6495C4.70149 25.7652 5.39173 27.5116 6.45939 29.2296C10.555 35.82 18.7743 38.6601 26.1137 36.021C29.9702 34.6343 33.3808 31.6172 35.2213 27.9642C37.5656 23.3112 37.5941 17.833 35.2979 13.2235C33.4234 9.46036 30.3507 6.64736 26.4228 5.09874C24.2109 4.22664 21.5626 3.85105 19.0557 4.05373ZM13.1312 7.06178C11.4321 8.00062 9.81557 9.32534 8.70763 10.6865C7.67861 11.9507 7.72415 11.7964 8.01749 13.0247C8.15752 13.6109 8.39749 14.6234 8.5507 15.2748C8.70402 15.9262 8.86774 16.533 8.91452 16.6232C8.96697 16.7243 10.0487 17.1329 11.7313 17.6873C14.109 18.4707 14.4878 18.5696 14.6539 18.4501C14.7589 18.3747 15.9669 17.4133 17.3383 16.3136L19.8318 14.3141L19.8044 11.5423L19.777 8.77035L16.9435 7.64675C15.3851 7.02883 14.11 6.52203 14.11 6.52203C14.11 6.52203 13.6695 6.76425 13.1312 7.06178ZM23.9986 7.65108L21.2195 8.76499L21.192 11.5531L21.1646 14.341L23.7164 16.3839C25.1199 17.5074 26.3273 18.4624 26.3996 18.5063C26.517 18.5773 31.8203 16.8966 32.0081 16.7287C32.0482 16.6929 32.3348 15.598 32.6452 14.2956L33.2094 11.9277L32.6572 11.2068C32.0458 10.4087 30.6727 9.02009 29.8697 8.38795C29.2624 7.90988 27.89 7.05385 27.2986 6.78433C27.0719 6.68104 26.862 6.5832 26.8321 6.56683C26.8022 6.55045 25.5272 7.03841 23.9986 7.65108ZM6.87431 19.9425L5.20998 21.9376L5.31487 22.6942C5.4653 23.7796 5.86745 25.2555 6.29247 26.2822C6.84124 27.6082 7.57124 28.868 7.82039 28.9191C8.03532 28.9633 10.6441 29.3717 12.1804 29.6018C12.7018 29.6799 13.0664 29.6923 13.1191 29.6341C13.1665 29.5815 13.7599 28.7971 14.4377 27.8908L15.6703 26.243L14.8742 23.0654C14.4364 21.3177 14.039 19.8521 13.9911 19.8084C13.9432 19.7648 12.7448 19.3456 11.328 18.8771C9.91129 18.4085 8.70412 18.0077 8.64539 17.9863C8.58676 17.9649 7.78978 18.8452 6.87431 19.9425ZM29.6757 18.868C28.2064 19.3624 26.9648 19.8338 26.9167 19.9154C26.8687 19.997 26.4836 21.4524 26.0609 23.1497L25.2926 26.2355L26.6047 27.9736L27.9168 29.7117L28.3804 29.6527C30.0424 29.4411 33.0058 28.9415 33.2114 28.8382C33.6851 28.6002 34.9535 25.8933 35.3201 24.3377C35.8914 21.9134 35.9811 22.2304 34.0732 19.9252C33.1806 18.8468 32.4272 17.9655 32.3988 17.9666C32.3705 17.9677 31.1451 18.3734 29.6757 18.868ZM15.5991 28.4315C15.0158 29.2104 14.4361 29.9866 14.3109 30.1565L14.0834 30.4655L15.6981 32.985C17.5472 35.87 17.1892 35.591 19.2502 35.7555C20.5388 35.8585 22.508 35.7543 23.5009 35.5307L24.1045 35.3948L25.4645 33.0331C26.2127 31.7342 26.827 30.6043 26.8298 30.5221C26.8326 30.44 26.267 29.6192 25.5727 28.6982L24.3105 27.0236L20.4851 27.0195L16.6596 27.0154L15.5991 28.4315Z" fill="#FBFBFB"/>
</svg>
