<svg width="40" height="40" viewBox="0 0 40 40" fill="none" xmlns="http://www.w3.org/2000/svg">
<g clip-path="url(#clip0_8_8)">
<path d="M17.2924 20.9375C17.2924 19.2692 18.6445 17.9164 20.3129 17.9164C21.9812 17.9164 23.3341 19.2692 23.3341 20.9375C23.3341 22.6058 21.9812 23.9586 20.3129 23.9586C18.6445 23.9586 17.2924 22.6058 17.2924 20.9375ZM15.6592 20.9375C15.6592 23.5076 17.7426 25.591 20.3129 25.591C22.8831 25.591 24.9665 23.5076 24.9665 20.9375C24.9665 18.3674 22.8831 16.284 20.3129 16.284C17.7426 16.284 15.6592 18.3674 15.6592 20.9375ZM24.0632 16.0995C24.0631 16.3146 24.1268 16.5249 24.2463 16.7038C24.3657 16.8826 24.5355 17.0221 24.7342 17.1045C24.9329 17.1869 25.1515 17.2085 25.3625 17.1666C25.5735 17.1247 25.7673 17.0213 25.9195 16.8692C26.0716 16.7172 26.1753 16.5235 26.2173 16.3125C26.2594 16.1016 26.2379 15.8829 26.1557 15.6842C26.0735 15.4854 25.9341 15.3155 25.7553 15.196C25.5765 15.0764 25.3663 15.0125 25.1512 15.0124H25.1508C24.8624 15.0126 24.586 15.1271 24.3821 15.331C24.1781 15.5348 24.0635 15.8112 24.0632 16.0995ZM16.6515 28.3142C15.7679 28.2739 15.2876 28.1267 14.9685 28.0024C14.5453 27.8377 14.2434 27.6415 13.926 27.3245C13.6086 27.0076 13.4121 26.706 13.2481 26.2829C13.1237 25.9639 12.9765 25.4835 12.9363 24.5999C12.8924 23.6446 12.8836 23.3577 12.8836 20.9376C12.8836 18.5174 12.8931 18.2313 12.9363 17.2752C12.9766 16.3917 13.1249 15.9122 13.2481 15.5923C13.4128 15.1692 13.609 14.8673 13.926 14.5499C14.243 14.2325 14.5446 14.036 14.9685 13.872C15.2875 13.7476 15.7679 13.6004 16.6515 13.5603C17.6068 13.5163 17.8937 13.5076 20.3129 13.5076C22.732 13.5076 23.0193 13.5171 23.9753 13.5603C24.8589 13.6005 25.3384 13.7488 25.6584 13.872C26.0815 14.036 26.3834 14.2329 26.7008 14.5499C27.0182 14.8669 27.214 15.1692 27.3787 15.5923C27.5031 15.9113 27.6503 16.3917 27.6905 17.2752C27.7344 18.2313 27.7432 18.5174 27.7432 20.9376C27.7432 23.3577 27.7344 23.6439 27.6905 24.5999C27.6502 25.4835 27.5023 25.9637 27.3787 26.2829C27.214 26.706 27.0178 27.0079 26.7008 27.3245C26.3838 27.6412 26.0815 27.8377 25.6584 28.0024C25.3393 28.1268 24.8589 28.274 23.9753 28.3142C23.02 28.3581 22.7331 28.3669 20.3129 28.3669C17.8926 28.3669 17.6065 28.3581 16.6515 28.3142ZM16.5764 11.9299C15.6116 11.9738 14.9524 12.1268 14.3766 12.3508C13.7804 12.5822 13.2756 12.8925 12.7712 13.3961C12.2668 13.8997 11.9572 14.4052 11.7258 15.0015C11.5018 15.5776 11.3488 16.2365 11.3049 17.2012C11.2602 18.1675 11.25 18.4764 11.25 20.9375C11.25 23.3986 11.2602 23.7075 11.3049 24.6738C11.3488 25.6386 11.5018 26.2974 11.7258 26.8735C11.9572 27.4694 12.2669 27.9755 12.7712 28.4789C13.2755 28.9822 13.7804 29.2922 14.3766 29.5242C14.9534 29.7482 15.6116 29.9012 16.5764 29.9451C17.5433 29.9891 17.8517 30 20.3129 30C22.774 30 23.083 29.9898 24.0493 29.9451C25.0142 29.9012 25.673 29.7482 26.2491 29.5242C26.845 29.2922 27.3501 28.9825 27.8545 28.4789C28.3589 27.9753 28.6679 27.4694 28.8999 26.8735C29.1239 26.2974 29.2776 25.6385 29.3208 24.6738C29.3648 23.7068 29.375 23.3986 29.375 20.9375C29.375 18.4764 29.3648 18.1675 29.3208 17.2012C29.2769 16.2364 29.1239 15.5772 28.8999 15.0015C28.6679 14.4056 28.3581 13.9005 27.8545 13.3961C27.3509 12.8917 26.845 12.5822 26.2498 12.3508C25.673 12.1268 25.0141 11.9731 24.05 11.9299C23.0837 11.8859 22.7748 11.875 20.3136 11.875C17.8524 11.875 17.5433 11.8852 16.5764 11.9299Z" fill="white"/>
</g>
<circle cx="20" cy="20" r="19.25" stroke="white" stroke-width="1.5"/>
<defs>
<clipPath id="clip0_8_8">
<rect width="20" height="20" fill="white" transform="translate(10 11.25)"/>
</clipPath>
</defs>
</svg>
