<svg width="40" height="40" viewBox="0 0 40 40" fill="none" xmlns="http://www.w3.org/2000/svg">
<circle cx="20" cy="20" r="19.25" stroke="white" stroke-width="1.5"/>
<path d="M27.9643 13.9197C26.9331 13.6954 25.9993 13.1421 25.299 12.3404C24.5987 11.5387 24.1686 10.5306 24.0714 9.46299V9H20.5141V23.3537C20.5119 23.9892 20.3139 24.608 19.948 25.1231C19.582 25.6383 19.0665 26.0239 18.4739 26.2258C17.8813 26.4278 17.2413 26.4358 16.644 26.2489C16.0466 26.0619 15.5219 25.6894 15.1435 25.1836C14.7593 24.6694 14.5461 24.0441 14.535 23.3984C14.5238 22.7526 14.7153 22.1201 15.0815 21.5925C15.4478 21.0648 15.9698 20.6695 16.572 20.4639C17.1741 20.2582 17.825 20.2529 18.4303 20.4488V16.7742C17.0805 16.5845 15.7062 16.8285 14.4995 17.472C13.2929 18.1156 12.3142 19.1265 11.7005 20.3634C11.0867 21.6003 10.8686 23.0013 11.0766 24.3704C11.2846 25.7396 11.9083 27.0084 12.8604 27.9994C13.7684 28.944 14.9327 29.5921 16.2047 29.8609C17.4766 30.1297 18.7985 30.0071 20.0015 29.5087C21.2046 29.0103 22.2343 28.1586 22.9592 27.0626C23.6841 25.9665 24.0713 24.6756 24.0714 23.3548V16.0204C25.509 17.0654 27.2328 17.6257 29 17.6225V14.0288C28.652 14.0293 28.3048 13.9927 27.9643 13.9197Z" fill="white"/>
</svg>
