<?xml version="1.0" encoding="UTF-8" standalone="no"?>
<svg
   id="Layer_1"
   version="1.1"
   viewBox="0 0 1080 1080"
   sodipodi:docname="logo.svg"
   inkscape:version="1.3.2 (091e20e, 2023-11-25)"
   xmlns:inkscape="http://www.inkscape.org/namespaces/inkscape"
   xmlns:sodipodi="http://sodipodi.sourceforge.net/DTD/sodipodi-0.dtd"
   xmlns="http://www.w3.org/2000/svg"
   xmlns:svg="http://www.w3.org/2000/svg">
  <defs
     id="defs16" />
  <sodipodi:namedview
     id="namedview16"
     pagecolor="#ffffff"
     bordercolor="#666666"
     borderopacity="1.0"
     inkscape:showpageshadow="2"
     inkscape:pageopacity="0.0"
     inkscape:pagecheckerboard="0"
     inkscape:deskcolor="#d1d1d1"
     inkscape:zoom="0.21851852"
     inkscape:cx="540"
     inkscape:cy="540"
     inkscape:window-width="1440"
     inkscape:window-height="652"
     inkscape:window-x="0"
     inkscape:window-y="25"
     inkscape:window-maximized="0"
     inkscape:current-layer="Layer_1" />
  <!-- Generator: Adobe Illustrator 29.1.0, SVG Export Plug-In . SVG Version: 2.1.0 Build 142)  -->
  <path
     d="M1037.55,329.8c-27.2-64.31-66.13-122.05-115.72-171.64-49.58-49.58-107.33-88.52-171.64-115.72C683.61,14.28,612.89,0,540,0s-143.61,14.28-210.2,42.45c-64.31,27.2-122.05,66.13-171.64,115.72-49.58,49.58-88.52,107.33-115.72,171.64C14.28,396.39,0,467.11,0,540s14.28,143.61,42.45,210.2c27.2,64.31,66.13,122.05,115.72,171.64,49.58,49.58,107.33,88.52,171.64,115.72,66.59,28.17,137.31,42.45,210.2,42.45s143.61-14.28,210.2-42.45c64.31-27.2,122.05-66.13,171.64-115.72,49.58-49.58,88.52-107.33,115.72-171.64,28.17-66.59,42.45-137.31,42.45-210.2s-14.28-143.61-42.45-210.2ZM540,1055.31c-284.6,0-515.31-230.71-515.31-515.31S255.4,24.69,540,24.69s515.31,230.71,515.31,515.31-230.71,515.31-515.31,515.31Z"
     id="path1"
     style="fill:#ffffff" />
  <polygon
     points="260.24 311.87 222.5 275.89 261.77 279.35 266.26 274.64 260.93 235.58 298.67 271.55 312.46 257.08 240.42 188.4 235.92 193.12 245.68 259.52 178.89 252.94 174.39 257.66 246.44 326.34 260.24 311.87"
     id="polygon1"
     style="fill:#ffffff" />
  <path
     d="M336.45,242.04l-1.7-13.76,34.52-20.2,11.16,8.23,18.54-10.85-87.86-63.92-5.75,3.37,12.55,107.98,18.54-10.85ZM354.96,197.41l-22.5,13.17-5.43-35.09,27.93,21.93Z"
     id="path2"
     style="fill:#ffffff" />
  <path
     d="M425.64,198.26l-9.46-33.19,14.1-4.02,33.82,26.25,21.65-6.17-37.15-29.3c4.49-4.05,7.52-8.84,9.07-14.37,1.56-5.53,1.5-11.23-.18-17.12-2.57-9.02-7.84-15.43-15.79-19.22-7.96-3.79-16.88-4.28-26.75-1.46l-35.33,10.07,26.79,94.02,19.23-5.48ZM419.78,116.6c4.27-1.22,8.07-.96,11.38.76,3.31,1.73,5.54,4.58,6.68,8.57,1.16,4.08.84,7.72-.97,10.91-1.81,3.19-4.95,5.42-9.41,6.69l-16.1,4.59-7.67-26.92,16.1-4.59Z"
     id="path3"
     style="fill:#ffffff" />
  <path
     d="M536.16,180.01c9.38-.32,16.98-3.28,22.82-8.87,5.83-5.59,8.61-12.57,8.32-20.96-.41-11.84-6.46-19.69-18.15-23.53,4.68-4.7,6.89-10.66,6.64-17.87-.28-7.99-3.39-14.43-9.34-19.32-5.95-4.88-13.46-7.17-22.54-6.85l-34.64,1.2,3.38,97.7,43.52-1.5ZM547.58,150.12c.13,3.85-1,6.9-3.39,9.16-2.39,2.26-5.76,3.46-10.1,3.61l-22.8.79-.85-24.57,22.8-.79c4.34-.15,7.78.84,10.33,2.98,2.54,2.13,3.88,5.08,4.01,8.83ZM522.87,99.84c4.05-.14,7.21.74,9.5,2.64,2.29,1.9,3.49,4.57,3.61,8.03.12,3.55-.89,6.36-3.04,8.41-2.15,2.05-5.25,3.15-9.3,3.29l-13.77.48-.77-22.35,13.77-.48Z"
     id="path4"
     style="fill:#ffffff" />
  <polygon
     points="648.81 176.09 602.15 166.94 606.91 142.67 639.91 149.14 643.18 132.42 610.19 125.95 614.01 106.47 658.92 115.28 662.4 97.55 597.86 84.89 579.05 180.83 645.33 193.83 648.81 176.09"
     id="polygon4"
     style="fill:#ffffff" />
  <polygon
     points="714.52 223.19 721.67 206.59 682.34 189.67 713.84 116.46 695.47 108.56 656.83 198.36 714.52 223.19"
     id="polygon5"
     style="fill:#ffffff" />
  <polygon
     points="784.75 249.82 749.63 225.34 795.18 159.96 778.78 148.53 722.89 228.74 774.42 264.64 784.75 249.82"
     id="polygon6"
     style="fill:#ffffff" />
  <path
     d="M775.45,263.78l14.41,15.93,13.12-4.48,26.83,29.66-5.77,12.61,14.41,15.93,44.61-99.07-4.47-4.94-103.13,34.36ZM837.33,288.7l-17.49-19.33,33.24-12.49-15.75,31.83Z"
     id="path6"
     style="fill:#ffffff" />
  <polygon
     points="288.13 840.01 280.19 833.56 240.05 882.98 270.6 907.8 276.38 900.69 253.76 882.32 288.13 840.01"
     id="polygon7"
     style="fill:#ffffff" />
  <path
     d="M278.56,914.03l9.32,5.66,9.38-6.72,24.49,14.87-1.63,11.42,9.4,5.71,9.6-69.9-2.97-1.8-57.59,40.77ZM323.18,918.43l-18.22-11.06,22.82-16.96-4.6,28.02Z"
     id="path7"
     style="fill:#ffffff" />
  <path
     d="M404.88,906.61l-48.5,51.24,10.24,3.72,7.89-8.42,26.93,9.79.64,11.52,10.34,3.76-4.26-70.43-3.26-1.19ZM380.95,946.16l19.06-21.09.97,28.38-20.04-7.29Z"
     id="path8"
     style="fill:#ffffff" />
  <path
     d="M449.36,936.75c5.14-3.56,10.93-4.72,17.37-3.47,8.15,1.57,13.83,6.4,17.05,14.49l8.66-4.12c-1.86-4.94-4.91-9.17-9.15-12.67-4.24-3.5-9.2-5.8-14.88-6.9-8.94-1.86-17.31-.23-25.11,4.88-7.8,5.11-12.46,12.14-13.99,21.08-1.91,8.87-.2,17.12,5.14,24.77,5.34,7.65,12.5,12.27,21.49,13.88,5.74,1.11,11.22.84,16.42-.81,5.2-1.65,9.59-4.45,13.17-8.41l-6.5-7.05c-6,6.31-13.07,8.68-21.22,7.1-6.44-1.24-11.39-4.47-14.83-9.69-3.45-5.22-4.53-11.14-3.25-17.77,1.28-6.63,4.49-11.73,9.63-15.29Z"
     id="path9"
     style="fill:#ffffff" />
  <path
     d="M525.01,930.32l-30.21,63.76,10.89.36,4.88-10.45,28.64.95,4.18,10.76,10.99.37-25.91-65.63-3.47-.11ZM514.53,975.34l11.58-25.97,9.73,26.68-21.31-.71Z"
     id="path10"
     style="fill:#ffffff" />
  <path
     d="M608.88,935.03c-7.03-5.03-15.69-6.92-25.97-5.66l-19.82,2.43,7.76,63.2,19.82-2.43c10.21-1.25,18.13-5.24,23.76-11.95,5.62-6.72,7.87-14.7,6.73-23.96-1.15-9.38-5.24-16.59-12.28-21.63ZM606.17,975.07c-3.86,4.72-9.43,7.52-16.7,8.42l-9.58,1.18-5.51-44.91,9.58-1.18c7.34-.9,13.43.41,18.27,3.93s7.67,8.66,8.5,15.43c.82,6.7-.7,12.41-4.56,17.13Z"
     id="path11"
     style="fill:#ffffff" />
  <polygon
     points="650.2 972.55 644.83 953.11 667.8 946.77 665.44 938.22 642.47 944.56 638.13 928.84 668.63 920.42 666.19 911.58 625.83 922.73 642.79 984.11 684.26 972.65 681.82 963.82 650.2 972.55"
     id="polygon11"
     style="fill:#ffffff" />
  <polygon
     points="726.71 884.23 717.23 927.72 678.11 906.47 674.87 907.96 701.81 966.82 711.11 962.56 694.45 926.16 721.11 940.37 724.27 938.93 730.89 909.58 747.51 945.9 756.81 941.64 729.87 882.78 726.71 884.23"
     id="polygon12"
     style="fill:#ffffff" />
  <rect
     x="757.18"
     y="868.7"
     width="10.23"
     height="63.67"
     transform="translate(-359.58 535.22) rotate(-31.72)"
     id="rect12"
     style="fill:#ffffff" />
  <path
     d="M778.48,849.38l17.64,68.32,8.6-6.7-2.95-11.16,22.6-17.61,10.1,5.58,8.68-6.76-61.93-33.81-2.74,2.13ZM816.09,877.55l-16.82,13.1-7.74-27.36,24.56,14.25Z"
     id="path12"
     style="fill:#ffffff" />
  <path
     d="M97.1,554.61c5.3-5.53,9.42-10.63,12.39-15.31,2.8-4.52,4.21-9.39,4.21-14.61,0-7.01-2.53-12.87-7.59-17.59-5.07-4.71-11.45-7.07-19.16-7.07s-14.47,2.53-19.57,7.59c-5.1,5.06-7.65,11.02-7.65,17.88,0,2.42.27,4.6.82,6.54h15.89c-.39-2.57-.58-4.44-.58-5.61,0-3.51.99-6.35,2.98-8.53,1.99-2.18,4.62-3.27,7.89-3.27s5.88,1.05,7.83,3.15c1.95,2.1,2.92,4.83,2.92,8.18,0,2.8-.84,5.67-2.51,8.59-1.68,2.92-4.46,6.52-8.35,10.81l-27.58,29.91v3.39l56.9-.12v-13.44h-28.74l9.93-10.52Z"
     id="path13"
     style="fill:#ffffff" />
  <path
     d="M159.14,500.04c-9.97,0-17.57,3.62-22.78,10.87-5.22,7.17-7.83,16.67-7.83,28.51s2.65,21.66,7.95,29.21c5.3,7.56,12.85,11.33,22.67,11.33s17.25-3.78,22.55-11.33c5.3-7.55,7.94-17.29,7.94-29.21s-2.61-21.34-7.83-28.51c-5.14-7.24-12.7-10.87-22.67-10.87ZM159.14,565.35c-9.58,0-14.37-8.61-14.37-25.82s4.79-24.89,14.37-24.89,14.26,8.3,14.26,24.89-4.75,25.82-14.26,25.82Z"
     id="path14"
     style="fill:#ffffff" />
  <path
     d="M931.21,555.5c5.38-5.62,9.58-10.81,12.59-15.56,2.85-4.59,4.28-9.54,4.28-14.84,0-7.13-2.57-13.08-7.72-17.87-5.15-4.79-11.64-7.18-19.48-7.18s-14.71,2.57-19.89,7.72c-5.19,5.15-7.78,11.2-7.78,18.17,0,2.45.28,4.67.83,6.65h16.15c-.4-2.61-.59-4.51-.59-5.7,0-3.56,1.01-6.45,3.03-8.67,2.02-2.22,4.69-3.33,8.02-3.33s5.98,1.07,7.96,3.21c1.98,2.14,2.97,4.91,2.97,8.31,0,2.85-.85,5.76-2.55,8.73-1.7,2.97-4.53,6.63-8.49,10.99l-28.03,30.4v3.44l57.83-.12v-13.66h-29.21l10.09-10.69Z"
     id="path15"
     style="fill:#ffffff" />
  <polygon
     points="1013.39 553.48 1013.39 531.51 997.36 531.51 997.36 553.48 978.36 553.48 999.14 501.46 982.63 501.46 958.41 562.74 958.41 567.02 997.36 567.02 997.36 579.84 1013.39 579.84 1013.39 567.02 1023.37 567.02 1023.37 553.48 1013.39 553.48"
     id="polygon15"
     style="fill:#ffffff" />
  <path
     d="M546.72,217.31c-2.22-.05-4.45-.09-6.71-.09,0,0-.01,0-.02,0h0c-2.27,0-4.51.03-6.73.09-1.6.03-3.2.09-4.8.14,0,0-.02,0-.03,0-172.64,6.12-311.2,148.44-311.2,322.54s144.8,322.78,322.78,322.78,322.77-144.8,322.77-322.78-141.16-319.09-316.05-322.69ZM316.34,334.01c5.42,1.45,10.7,3.69,15.78,6.59,4.65,2.86,30.7,21.84,10.44,77.02l-53.94,132.15c-.03-.08-.05-.14-.05-.14-15.25,37.22-36.67,43.24-48.14,43.51-3.05-17.26-4.65-35.02-4.65-53.14,0-79.39,30.58-151.76,80.56-205.99ZM412.47,816.17c-6.11-7.6-25.48-36.26-9.26-77.94h0s63.38-154.01,63.38-154.01l-44.58-77.12-100.64,244.21c-9.34-9.66-18.05-19.94-26.06-30.77l113-277.23,131.7,227.84,50.84-87.96-34.03-82.15-16.82,29.09-100.41-173.7.02-.05c-17.99-30.41-16.66-73.29-13.81-98.34,11.91-4.84,24.18-8.95,36.77-12.27,33.31,17.79,39.78,58.96,40.49,64.36l-31.07,75.51,44.58,77.12,23.41-56.89.03.07v-.02s138.48,336.92,138.48,336.92c13.11,39.13-5.01,65.96-10.92,73.31-38.82,18-82.03,28.07-127.56,28.07s-88.72-10.07-127.53-28.06ZM758.04,751.93l-107.66-263.12-73.43-178.67c.7-5.34,7.15-46.56,40.49-64.37,12.59,3.32,24.87,7.43,36.77,12.27,2.85,25.05,4.18,67.94-13.81,98.35l.02.05-17.49,30.26,33.87,82.42,14.91-25.79,112.99,277.25c-8.18,11.05-17.09,21.53-26.65,31.37ZM839.57,593.14c-11.47-.27-32.88-6.29-48.14-43.51,0,0-.02.06-.05.15l-51.47-126.11.11.11c-26.83-65.4,8.75-83.59,8.75-83.59l-.07-.07c4.83-2.68,9.83-4.75,14.97-6.12,49.98,54.23,80.56,126.6,80.56,205.99,0,18.12-1.6,35.88-4.65,53.14Z"
     id="path16"
     style="fill:#ffffff" />
</svg>
