<svg width="480" height="130" viewBox="0 0 480 130" fill="none" xmlns="http://www.w3.org/2000/svg">
<g clip-path="url(#clip0_9_170)">
<path d="M40.0012 0L0 21.6679L40.0012 12.9993L79.9988 21.6679L40.0012 0Z" fill="#E1E1E5"/>
<path d="M120 0L79.9988 21.6679L120 12.9993L160.001 21.6679L120 0Z" fill="#E1E1E5"/>
<path d="M199.999 0L160.001 21.6679L199.999 12.9993L240 21.6679L199.999 0Z" fill="#E1E1E5"/>
<path d="M280.001 0L240 21.6679L280.001 12.9993L319.999 21.6679L280.001 0Z" fill="#E1E1E5"/>
<path d="M360 0L319.999 21.6679L360 12.9993L400.001 21.6679L360 0Z" fill="#E1E1E5"/>
<path d="M439.999 0L400.001 21.6679L439.999 12.9993L480 21.6679L439.999 0Z" fill="#E1E1E5"/>
<path d="M79.9988 21.668L40.0012 43.3322L79.9988 34.6672L120 43.3322L79.9988 21.668Z" fill="#E1E1E5"/>
<path d="M160.001 21.668L120 43.3322L160.001 34.6672L199.999 43.3322L160.001 21.668Z" fill="#E1E1E5"/>
<path d="M240 21.668L199.999 43.3322L240 34.6672L280.001 43.3322L240 21.668Z" fill="#E1E1E5"/>
<path d="M319.999 21.668L280.001 43.3322L319.999 34.6672L360 43.3322L319.999 21.668Z" fill="#E1E1E5"/>
<path d="M400.001 21.668L360 43.3322L400.001 34.6672L439.999 43.3322L400.001 21.668Z" fill="#E1E1E5"/>
<path d="M40.0012 43.332L0 64.9999L40.0012 56.3313L79.9988 64.9999L40.0012 43.332Z" fill="#E1E1E5"/>
<path d="M120 43.332L79.9988 64.9999L120 56.3313L160.001 64.9999L120 43.332Z" fill="#E1E1E5"/>
<path d="M199.999 43.332L160.001 64.9999L199.999 56.3313L240 64.9999L199.999 43.332Z" fill="#E1E1E5"/>
<path d="M280.001 43.332L240 64.9999L280.001 56.3313L319.999 64.9999L280.001 43.332Z" fill="#E1E1E5"/>
<path d="M360 43.332L319.999 64.9999L360 56.3313L400.001 64.9999L360 43.332Z" fill="#E1E1E5"/>
<path d="M439.999 43.332L400.001 64.9999L439.999 56.3313L480 64.9999L439.999 43.332Z" fill="#E1E1E5"/>
<path d="M79.9988 65L40.0012 86.6643L79.9988 77.9993L120 86.6643L79.9988 65Z" fill="#E1E1E5"/>
<path d="M160.001 65L120 86.6643L160.001 77.9993L199.999 86.6643L160.001 65Z" fill="#E1E1E5"/>
<path d="M240 65L199.999 86.6643L240 77.9993L280.001 86.6643L240 65Z" fill="#E1E1E5"/>
<path d="M319.999 65L280.001 86.6643L319.999 77.9993L360 86.6643L319.999 65Z" fill="#E1E1E5"/>
<path d="M400.001 65L360 86.6643L400.001 77.9993L439.999 86.6643L400.001 65Z" fill="#E1E1E5"/>
<path d="M40.0012 86.6643L0 108.332L40.0012 99.6672L79.9988 108.332L40.0012 86.6643Z" fill="#E1E1E5"/>
<path d="M120 86.6643L79.9988 108.332L120 99.6672L160.001 108.332L120 86.6643Z" fill="#E1E1E5"/>
<path d="M199.999 86.6643L160.001 108.332L199.999 99.6672L240 108.332L199.999 86.6643Z" fill="#E1E1E5"/>
<path d="M280.001 86.6643L240 108.332L280.001 99.6672L319.999 108.332L280.001 86.6643Z" fill="#E1E1E5"/>
<path d="M360 86.6643L319.999 108.332L360 99.6672L400.001 108.332L360 86.6643Z" fill="#E1E1E5"/>
<path d="M439.999 86.6643L400.001 108.332L439.999 99.6672L480 108.332L439.999 86.6643Z" fill="#E1E1E5"/>
<path d="M79.9988 108.332L40.0012 130L79.9988 121.331L120 130L79.9988 108.332Z" fill="#E1E1E5"/>
<path d="M160.001 108.332L120 130L160.001 121.331L199.999 130L160.001 108.332Z" fill="#E1E1E5"/>
<path d="M240 108.332L199.999 130L240 121.331L280.001 130L240 108.332Z" fill="#E1E1E5"/>
<path d="M319.999 108.332L280.001 130L319.999 121.331L360 130L319.999 108.332Z" fill="#E1E1E5"/>
<path d="M400.001 108.332L360 130L400.001 121.331L439.999 130L400.001 108.332Z" fill="#E1E1E5"/>
</g>
<defs>
<clipPath id="clip0_9_170">
<rect width="480" height="130" fill="white"/>
</clipPath>
</defs>
</svg>
