<svg width="480" height="65" viewBox="0 0 480 65" fill="none" xmlns="http://www.w3.org/2000/svg">
<path d="M79.9986 0L40.001 21.6643L79.9986 12.9993L120 21.6643L79.9986 0Z" fill="#E1E1E5"/>
<path d="M160.001 0L120 21.6643L160.001 12.9993L199.999 21.6643L160.001 0Z" fill="#E1E1E5"/>
<path d="M240 0L199.999 21.6643L240 12.9993L280.001 21.6643L240 0Z" fill="#E1E1E5"/>
<path d="M319.999 0L280.001 21.6643L319.999 12.9993L360 21.6643L319.999 0Z" fill="#E1E1E5"/>
<path d="M400.001 0L360 21.6643L400.001 12.9993L439.999 21.6643L400.001 0Z" fill="#E1E1E5"/>
<path d="M40.0012 21.6642L0 43.3321L40.0012 34.6671L79.9988 43.3321L40.0012 21.6642Z" fill="#E1E1E5"/>
<path d="M120 21.6642L79.999 43.3321L120 34.6671L160.001 43.3321L120 21.6642Z" fill="#E1E1E5"/>
<path d="M199.999 21.6642L160.001 43.3321L199.999 34.6671L240 43.3321L199.999 21.6642Z" fill="#E1E1E5"/>
<path d="M280.001 21.6642L240 43.3321L280.001 34.6671L319.999 43.3321L280.001 21.6642Z" fill="#E1E1E5"/>
<path d="M360 21.6642L319.999 43.3321L360 34.6671L400.001 43.3321L360 21.6642Z" fill="#E1E1E5"/>
<path d="M439.999 21.6642L400.001 43.3321L439.999 34.6671L480 43.3321L439.999 21.6642Z" fill="#E1E1E5"/>
<path d="M79.9986 43.3322L40.001 65L79.9986 56.3314L120 65L79.9986 43.3322Z" fill="#E1E1E5"/>
<path d="M160.001 43.3322L120 65L160.001 56.3314L199.999 65L160.001 43.3322Z" fill="#E1E1E5"/>
<path d="M240 43.3322L199.999 65L240 56.3314L280.001 65L240 43.3322Z" fill="#E1E1E5"/>
<path d="M319.999 43.3322L280.001 65L319.999 56.3314L360 65L319.999 43.3322Z" fill="#E1E1E5"/>
<path d="M400.001 43.3322L360 65L400.001 56.3314L439.999 65L400.001 43.3322Z" fill="#E1E1E5"/>
</svg>
