<svg width="32" height="32" viewBox="0 0 32 32" fill="none" xmlns="http://www.w3.org/2000/svg">
<path d="M21.9787 15.9687L30.18 8.84332V23.0127L21.9787 15.9687ZM11.4107 17.1753L14.2907 19.6753C14.7427 20.0593 15.332 20.2913 15.976 20.2913H15.9987H16.016C16.6613 20.2913 17.2507 20.058 17.708 19.6713L17.704 19.674L20.584 17.174L29.3387 24.6927H2.66L11.4107 17.1753ZM2.648 7.15398H29.3547L16.5267 18.2953C16.3831 18.4105 16.2041 18.4727 16.02 18.4713H16.0013H15.984C15.7993 18.4726 15.6198 18.41 15.476 18.294L15.4773 18.2953L2.648 7.15398ZM1.82 8.84198L10.02 15.9673L1.82 23.0073V8.84198ZM30.62 5.58732C30.3 5.42732 29.924 5.33398 29.5253 5.33398H2.47867C2.09238 5.33551 1.71156 5.42536 1.36533 5.59665L1.38 5.58998C0.966488 5.79463 0.618262 6.11057 0.374473 6.50228C0.130684 6.89399 0.000999147 7.34594 0 7.80732L0 24.0367C0.000705872 24.6935 0.261937 25.3232 0.726374 25.7876C1.19081 26.2521 1.82052 26.5133 2.47733 26.514H29.5213C30.1781 26.5133 30.8079 26.2521 31.2723 25.7876C31.7367 25.3232 31.998 24.6935 31.9987 24.0367V7.80732C31.9987 6.83798 31.44 5.99798 30.6267 5.59398L30.612 5.58732H30.62Z" fill="#FBFBFB"/>
</svg>
