<svg width="32" height="32" viewBox="0 0 32 32" fill="none" xmlns="http://www.w3.org/2000/svg">
<path d="M25.4001 6.54609C24.1775 5.31156 22.7214 4.33271 21.1167 3.66657C19.5121 3.00043 17.7908 2.66033 16.0534 2.66609C8.7734 2.66609 2.84007 8.59942 2.84007 15.8794C2.84007 18.2128 3.4534 20.4794 4.60007 22.4794L2.7334 29.3328L9.7334 27.4928C11.6667 28.5461 13.8401 29.1061 16.0534 29.1061C23.3334 29.1061 29.2667 23.1728 29.2667 15.8928C29.2667 12.3594 27.8934 9.03942 25.4001 6.54609ZM16.0534 26.8661C14.0801 26.8661 12.1467 26.3328 10.4534 25.3328L10.0534 25.0928L5.8934 26.1861L7.00007 22.1328L6.7334 21.7194C5.6368 19.9688 5.05463 17.9451 5.0534 15.8794C5.0534 9.82609 9.98673 4.89275 16.0401 4.89275C18.9734 4.89275 21.7334 6.03942 23.8001 8.11942C24.8236 9.13791 25.6346 10.3495 26.1862 11.6839C26.7378 13.0182 27.019 14.4489 27.0134 15.8928C27.0401 21.9461 22.1067 26.8661 16.0534 26.8661ZM22.0801 18.6528C21.7467 18.4928 20.1201 17.6928 19.8267 17.5728C19.5201 17.4661 19.3067 17.4128 19.0801 17.7328C18.8534 18.0661 18.2267 18.8128 18.0401 19.0261C17.8534 19.2528 17.6534 19.2794 17.3201 19.1061C16.9867 18.9461 15.9201 18.5861 14.6667 17.4661C13.6801 16.5861 13.0267 15.5061 12.8267 15.1728C12.6401 14.8394 12.8001 14.6661 12.9734 14.4928C13.1201 14.3461 13.3067 14.1061 13.4667 13.9194C13.6267 13.7328 13.6934 13.5861 13.8001 13.3728C13.9067 13.1461 13.8534 12.9594 13.7734 12.7994C13.6934 12.6394 13.0267 11.0128 12.7601 10.3461C12.4934 9.70609 12.2134 9.78609 12.0134 9.77275H11.3734C11.1467 9.77275 10.8001 9.85275 10.4934 10.1861C10.2001 10.5194 9.34673 11.3194 9.34673 12.9461C9.34673 14.5728 10.5334 16.1461 10.6934 16.3594C10.8534 16.5861 13.0267 19.9194 16.3334 21.3461C17.1201 21.6928 17.7334 21.8928 18.2134 22.0394C19.0001 22.2928 19.7201 22.2528 20.2934 22.1728C20.9334 22.0794 22.2534 21.3728 22.5201 20.5994C22.8001 19.8261 22.8001 19.1728 22.7067 19.0261C22.6134 18.8794 22.4134 18.8128 22.0801 18.6528Z" fill="#FBFBFB"/>
</svg>
