<svg width="290" height="290" viewBox="0 0 290 290" fill="none" xmlns="http://www.w3.org/2000/svg">
<rect width="290" height="290" fill="white"/>
<g clip-path="url(#clip0_2091_1214)">
<path d="M135.168 106.436C134.952 104.679 133.079 103.658 132.705 103.472L132.562 103.411C132.152 103.264 91.4751 88.7078 85.6444 86.4824C84.8064 86.1632 83.8369 86.0005 82.7636 86.0005C81.0162 86.0005 79.5523 86.4348 79.491 86.4529L79.4479 86.466C77.6835 87.0647 36.1863 101.148 32.2629 102.781C30.6073 103.471 28.4194 104.615 28.5198 106.576C28.6332 108.753 31.6387 109.843 32.6139 110.137L37.5193 111.87C36.6728 112.588 36.0179 113.54 35.6557 114.652C35.2293 115.962 35.2554 117.345 35.7175 118.62L35.5105 118.498C35.1408 119.127 26.4548 133.984 25.1089 142.592C24.4665 146.703 26.7769 148.777 29.1542 149.345C29.6594 149.465 30.1912 149.526 30.7298 149.526C33.3657 149.526 36.192 148.1 37.064 145.422C38.6731 140.479 41.369 127.326 42.3125 122.624C44.6223 122.313 46.5772 120.712 47.3143 118.446C47.646 117.426 47.6947 116.38 47.5031 115.395L56.0899 118.428L51.2026 129.63C50.9985 129.986 50.5228 130.997 50.8822 132.155C50.9746 132.452 51.1119 132.727 51.2893 132.982C47.0093 139.192 44.5021 146.711 44.5021 154.806C44.5021 156.645 44.6325 158.45 44.8814 160.22L36.8457 156.804L36.4369 156.898C32.4761 157.811 29.7404 159.701 28.3066 162.51C25.8941 167.239 28.1762 172.748 28.2743 172.981L28.4699 173.444L28.9274 173.651C31.0331 174.613 38.2785 177.914 47.3812 182.005C47.4022 183.763 48.078 185.364 49.1762 186.579H48.9568V202.146L53.9337 194.559L58.4893 201.015V187.494C58.6333 187.387 58.7716 187.274 58.906 187.156C76.981 195.192 96.8534 203.787 99.5346 203.965C99.8549 203.987 100.168 203.998 100.47 203.998C106.149 203.998 107.939 200.185 108.792 197.318C110.507 191.545 108.062 187.977 105.47 186.169C115.241 179.168 121.622 167.717 121.622 154.805C121.622 145.977 118.638 137.83 113.626 131.322C113.687 130.879 113.641 130.412 113.444 129.938C112.961 128.78 109.233 120.893 108.265 118.846C120.567 114.584 132.694 110.216 133.935 109.153C135.107 108.148 135.252 107.119 135.168 106.434V106.436ZM34.6096 144.621C34.0273 146.415 31.5661 147.269 29.7546 146.835C28.5697 146.553 27.2446 145.654 27.6602 142.992C28.7335 136.131 35.1182 124.426 37.1315 120.864C37.8084 121.55 38.6453 122.07 39.5887 122.377C39.6318 122.392 39.6772 122.404 39.7214 122.418C38.7349 127.311 36.124 139.971 34.6102 144.621H34.6096ZM44.8599 117.648C44.3825 119.114 43.0268 120.099 41.4864 120.099C41.1156 120.099 40.7448 120.039 40.3865 119.923C39.4855 119.63 38.7525 119.003 38.3216 118.158C37.8918 117.312 37.8164 116.351 38.1101 115.45C38.5245 114.183 39.5921 113.275 40.869 113.052L44.1529 114.212C44.9477 115.122 45.2596 116.416 44.8593 117.647L44.8599 117.648ZM46.2183 112.205L45.5623 111.973C45.4461 111.869 45.3242 111.77 45.2 111.674C49.4676 109.042 59.3794 104.534 76.2536 105.436C76.2536 105.637 76.2786 105.833 76.3251 106.022C60.9607 105.983 50.0607 110.386 46.2183 112.205ZM54.1548 129.316L58.5301 119.289L81.0082 127.226L81.2963 143.356C81.2849 143.352 81.2781 143.349 81.2764 143.349L81.243 143.334C80.8693 143.177 77.3377 141.693 72.9334 139.844C72.9289 139.837 72.9249 139.829 72.9221 139.824L72.9068 139.832C65.5946 136.763 55.8926 132.699 54.2291 132.033C53.8095 131.865 53.5073 131.663 53.3894 131.477C53.4665 131.164 53.805 130.305 54.2739 129.18C54.2347 129.225 54.1939 129.27 54.1548 129.316V129.316ZM75.2949 166.586C76.7894 163.161 77.2521 159.537 77.1443 156.099H81.2815V175.697L72.5354 171.979C73.5106 170.323 74.4484 168.523 75.2949 166.586V166.586ZM70.132 170.957L47.6919 161.416C47.3687 159.684 47.1697 157.908 47.1056 156.099H74.5397C74.6542 159.234 74.2573 162.511 72.9295 165.552C72.0801 167.498 71.1276 169.303 70.1326 170.957H70.132ZM76.9584 153.517C76.5076 149.43 75.3703 145.774 74.4178 143.266C77.6864 144.638 80.0535 145.634 80.2326 145.709C80.3528 145.761 80.7293 145.91 81.2821 145.995V153.517H76.9584ZM53.3933 134.48C55.2513 135.231 64.0059 138.898 71.0216 141.841C71.8375 143.653 73.6915 148.212 74.335 153.517H47.1056C47.3562 146.471 49.6423 139.935 53.3933 134.479V134.48ZM47.8569 179.391C41.7886 176.664 35.8558 173.976 30.4888 171.527C30.0665 170.277 29.0839 166.65 30.6119 163.672C31.6392 161.668 33.6582 160.27 36.6172 159.511L57.0367 168.193C55.2893 169.219 53.4001 171.284 52.0513 175.353C50.1333 176.022 48.5951 177.508 47.8569 179.391ZM55.909 192.885L53.8566 189.974L51.5365 193.508V188.286C52.3943 188.664 53.3401 188.874 54.3351 188.874C54.8765 188.874 55.4027 188.813 55.909 188.695V192.885ZM54.1378 185.927C51.7831 185.927 49.873 184.018 49.873 181.664C49.873 179.309 51.7831 177.399 54.1378 177.399C56.4924 177.399 58.4008 179.307 58.4008 181.664C58.4008 184.02 56.4924 185.927 54.1378 185.927ZM57.6762 175.823C56.849 175.368 55.9186 175.076 54.9327 174.992C57.1699 169.49 60.3824 169.759 60.9352 169.851L63.0324 170.742C60.8411 171.654 58.6486 173.254 57.6762 175.823ZM60.5406 185.06C61.0191 184.116 61.289 183.05 61.289 181.921C61.289 180.322 60.7475 178.848 59.8364 177.671C60.5893 173.52 65.5424 172.549 66.8464 172.364L98.1897 185.691C96.4661 186.722 93.8087 188.762 92.8029 191.939C92.0727 194.247 92.3358 196.705 93.5825 199.271C86.3656 196.404 73.84 190.966 60.5406 185.06V185.06ZM104.135 134.316C96.6436 137.532 86.8917 141.707 83.8703 142.957L83.5891 127.233C86.5288 126.25 91.9871 124.419 98.2623 122.282L104.134 134.316H104.135ZM100.724 121.443C101.239 121.267 101.757 121.09 102.279 120.911L107.95 132.677C107.488 132.876 107.007 133.082 106.508 133.296L100.724 121.442V121.443ZM91.4445 166.586C95.4025 175.652 101.365 181.722 103.958 184.082C103.585 184.348 103.207 184.607 102.825 184.859L83.8624 176.796V156.099H89.6954C89.5468 159.593 89.9766 163.224 91.4445 166.586ZM89.9069 153.517H83.8624V145.739L83.8652 145.738C84.4361 145.535 88.312 143.894 92.9991 141.893C91.9009 144.606 90.4665 148.835 89.9069 153.517ZM95.2602 192.732C95.3316 192.504 95.4155 192.283 95.5108 192.07L102.761 195.679C102.567 196.109 102.227 196.638 101.634 197.089C100.387 198.037 98.3819 198.343 95.8255 197.975C94.9484 196.088 94.7579 194.33 95.2602 192.732ZM106.318 196.584C105.217 200.285 103.326 201.632 99.7064 201.392C99.3452 201.368 98.5322 201.128 97.3359 200.702C97.4997 200.708 97.6636 200.712 97.824 200.712C100.06 200.712 101.883 200.169 103.261 199.092C105.307 197.494 105.553 195.353 105.576 195.116L105.656 194.237L96.9776 189.919C98.6274 188.167 100.708 187.279 100.739 187.266L100.491 186.67L102.126 187.366L102.243 187.409C102.879 187.613 108.394 189.597 106.318 196.585V196.584ZM106.037 182.476C103.872 180.544 97.7396 174.555 93.8087 165.552C92.5075 162.57 92.1436 159.289 92.2978 156.099H119.018C118.642 166.689 113.669 176.128 106.036 182.476H106.037ZM111.841 133.801C111.936 133.744 112.029 133.682 112.122 133.616C116.234 139.239 118.755 146.096 119.019 153.517H92.5319C93.3421 147.31 95.7671 141.896 96.4792 140.406C103.573 137.371 111.112 134.127 111.687 133.879L111.841 133.801ZM110.719 130.163C110.879 130.699 110.94 131.091 110.868 131.287C110.794 131.365 110.71 131.442 110.628 131.506C110.593 131.527 110.555 131.548 110.512 131.572L110.513 131.574C110.45 131.602 110.388 131.628 110.324 131.656L104.737 120.066C105.095 119.943 105.452 119.82 105.812 119.696C107.258 122.754 109.763 128.064 110.719 130.163ZM132.277 107.178C130.276 108.635 100.744 118.785 82.2941 124.944L49.8192 113.475C55.1753 111.341 65.7936 108.074 79.5438 108.679C80.4016 108.926 81.3904 109.064 82.4682 109.064C86.0696 109.064 88.6833 107.538 88.6833 105.434C88.6833 103.329 86.0696 101.802 82.4682 101.802C80.5626 101.802 78.9326 102.23 77.8213 102.946C56.9862 101.493 45.9672 107.809 42.3113 110.474C42.0386 110.437 41.7614 110.417 41.4858 110.417C41.3838 110.417 41.2828 110.42 41.1825 110.425L33.445 107.693L33.3895 107.674C32.4307 107.384 31.3688 106.806 31.1267 106.456C31.2401 106.295 31.6863 105.818 33.2562 105.163C37.0578 103.579 78.9371 89.3654 80.2479 88.9192C80.4004 88.8778 81.5015 88.5813 82.7636 88.5813C83.5222 88.5813 84.181 88.6868 84.7253 88.8937C90.4534 91.0799 129.544 105.072 131.609 105.812C132.041 106.044 132.578 106.513 132.607 106.751C132.61 106.776 132.558 106.937 132.277 107.177L132.277 107.178ZM78.8486 105.434C79.0488 105.102 80.291 104.384 82.4671 104.384C84.6431 104.384 85.8882 105.102 86.0883 105.434C85.8882 105.766 84.6442 106.484 82.4671 106.484C80.2899 106.484 79.0488 105.765 78.8486 105.434Z" fill="#231F20"/>
<path d="M153.451 129.199H145.494L136.087 160.555H133.03V162.928H143.24V160.555H138.589L141.415 151.169H157.588L160.416 160.555H155.761V162.928H165.975V160.555H162.859L153.452 129.199H153.451ZM142.115 148.797L147.292 131.575H151.709L156.886 148.797H142.115Z" fill="#231F20"/>
<path d="M195.615 154.676L195.479 155.303C194.808 158.395 192.133 160.554 188.975 160.554H181.137C177.468 160.554 174.485 157.57 174.485 153.903V138.225C174.485 134.558 177.468 131.574 181.137 131.574H188.975C192.135 131.574 194.808 133.733 195.479 136.826L195.615 137.452H198L197.82 136.508C197.009 132.273 193.291 129.199 188.975 129.199H181.137C176.16 129.199 172.111 133.248 172.111 138.224V153.902C172.111 158.878 176.16 162.928 181.137 162.928H188.975C193.291 162.928 197.009 159.854 197.82 155.62L198 154.676H195.615V154.676Z" fill="#231F20"/>
<path d="M138.289 172.75V173.514C137.51 173.057 136.84 172.829 136.279 172.829C135.718 172.829 135.289 172.991 134.927 173.319C134.566 173.646 134.385 174.053 134.385 174.536C134.385 174.883 134.492 175.196 134.707 175.474C134.92 175.753 135.368 176.021 136.049 176.277C136.73 176.534 137.227 176.749 137.539 176.92C137.852 177.091 138.116 177.34 138.335 177.665C138.553 177.99 138.663 178.412 138.663 178.93C138.663 179.619 138.41 180.203 137.905 180.677C137.4 181.152 136.783 181.389 136.055 181.389C135.328 181.389 134.543 181.129 133.755 180.606V179.792C134.626 180.429 135.378 180.749 136.018 180.749C136.547 180.749 136.997 180.575 137.362 180.231C137.729 179.887 137.912 179.464 137.912 178.962C137.912 178.582 137.799 178.238 137.571 177.931C137.344 177.626 136.884 177.339 136.19 177.072C135.497 176.806 135.001 176.592 134.704 176.43C134.406 176.266 134.153 176.035 133.946 175.733C133.737 175.432 133.633 175.043 133.633 174.568C133.633 173.91 133.887 173.347 134.392 172.883C134.897 172.419 135.505 172.186 136.216 172.186C136.927 172.186 137.606 172.375 138.29 172.752L138.289 172.75Z" fill="#231F20"/>
<path d="M151.658 172.938V173.695C150.572 173.117 149.503 172.829 148.46 172.829C147.346 172.829 146.414 173.207 145.666 173.965C144.915 174.724 144.542 175.669 144.542 176.804C144.542 177.939 144.919 178.895 145.672 179.637C146.426 180.377 147.387 180.748 148.556 180.748C149.533 180.748 150.597 180.441 151.748 179.829V180.549C150.686 181.109 149.627 181.388 148.569 181.388C147.203 181.388 146.065 180.952 145.155 180.076C144.245 179.2 143.791 178.109 143.791 176.803C143.791 175.497 144.254 174.39 145.184 173.508C146.113 172.626 147.22 172.184 148.504 172.184C149.515 172.184 150.565 172.436 151.658 172.937L151.658 172.938Z" fill="#231F20"/>
<path d="M164.417 172.302V181.274H163.718V177.023H157.731V181.274H157.037V172.302H157.731V176.444H163.718V172.302H164.417Z" fill="#231F20"/>
<path d="M174.81 172.185C176.136 172.185 177.261 172.633 178.182 173.526C179.106 174.419 179.566 175.507 179.566 176.791C179.566 178.076 179.106 179.157 178.182 180.051C177.261 180.944 176.136 181.389 174.81 181.389C173.483 181.389 172.367 180.944 171.45 180.051C170.531 179.157 170.073 178.072 170.073 176.791C170.073 175.511 170.531 174.419 171.45 173.526C172.367 172.633 173.488 172.185 174.81 172.185ZM174.836 180.749C175.952 180.749 176.895 180.365 177.663 179.601C178.431 178.838 178.814 177.9 178.814 176.791C178.814 175.683 178.431 174.739 177.663 173.975C176.894 173.21 175.952 172.829 174.836 172.829C173.721 172.829 172.766 173.209 171.989 173.975C171.213 174.739 170.824 175.678 170.824 176.791C170.824 177.905 171.213 178.837 171.989 179.601C172.766 180.365 173.714 180.749 174.836 180.749Z" fill="#231F20"/>
<path d="M185.915 172.302V180.697H190.352V181.274H185.22V172.302H185.915Z" fill="#231F20"/>
<path d="M198.88 172.237L203.029 181.274H202.301L200.881 178.171H196.493L195.079 181.274H194.351L198.5 172.237H198.88ZM200.617 177.595L198.683 173.368L196.756 177.595H200.617Z" fill="#231F20"/>
<path d="M208.06 172.301H210.359C211.322 172.301 212.059 172.51 212.568 172.927C213.078 173.345 213.333 173.909 213.333 174.62C213.333 175.655 212.764 176.384 211.625 176.804C211.921 176.945 212.318 177.401 212.819 178.171L214.848 181.274H214.027L212.464 178.814C211.942 177.991 211.535 177.479 211.244 177.275C210.953 177.072 210.528 176.97 209.967 176.97H208.752V181.274H208.06V172.301V172.301ZM208.752 172.879V176.393H210.242C211.001 176.393 211.58 176.24 211.98 175.934C212.382 175.628 212.582 175.193 212.582 174.634C212.582 174.074 212.378 173.65 211.97 173.341C211.565 173.033 210.979 172.88 210.217 172.88H208.752V172.879Z" fill="#231F20"/>
<path d="M223.767 172.75V173.514C222.987 173.057 222.316 172.829 221.757 172.829C221.197 172.829 220.766 172.991 220.405 173.319C220.043 173.646 219.861 174.053 219.861 174.536C219.861 174.883 219.968 175.196 220.183 175.474C220.396 175.753 220.844 176.021 221.524 176.277C222.206 176.534 222.702 176.749 223.016 176.92C223.328 177.091 223.594 177.34 223.812 177.665C224.028 177.99 224.14 178.412 224.14 178.93C224.14 179.619 223.886 180.203 223.381 180.677C222.876 181.152 222.259 181.389 221.531 181.389C220.804 181.389 220.02 181.129 219.232 180.606V179.792C220.102 180.429 220.854 180.749 221.493 180.749C222.024 180.749 222.473 180.575 222.838 180.231C223.204 179.887 223.388 179.464 223.388 178.962C223.388 178.582 223.274 178.238 223.048 177.931C222.82 177.626 222.359 177.339 221.667 177.072C220.973 176.806 220.477 176.592 220.179 176.43C219.882 176.266 219.629 176.035 219.421 175.733C219.213 175.432 219.109 175.043 219.109 174.568C219.109 173.91 219.363 173.347 219.868 172.883C220.373 172.419 220.982 172.186 221.692 172.186C222.403 172.186 223.082 172.375 223.767 172.752V172.75Z" fill="#231F20"/>
<path d="M237.045 172.302V181.274H236.346V177.023H230.359V181.274H229.665V172.302H230.359V176.444H236.346V172.302H237.045Z" fill="#231F20"/>
<path d="M243.755 172.302V181.274H243.061V172.302H243.755Z" fill="#231F20"/>
<path d="M249.743 172.302H252.216C253.161 172.302 253.886 172.513 254.39 172.938C254.893 173.361 255.144 173.94 255.144 174.672C255.144 175.404 254.891 176 254.383 176.432C253.877 176.864 253.133 177.08 252.152 177.08H250.438V181.274H249.744V172.302H249.743ZM250.437 172.879V176.502H252.106C252.855 176.502 253.425 176.343 253.815 176.027C254.204 175.71 254.399 175.262 254.399 174.684C254.399 174.106 254.209 173.693 253.827 173.367C253.447 173.041 252.901 172.879 252.19 172.879H250.437H250.437Z" fill="#231F20"/>
<path d="M264.628 172.75V173.514C263.849 173.057 263.179 172.829 262.618 172.829C262.056 172.829 261.627 172.991 261.266 173.319C260.904 173.646 260.723 174.053 260.723 174.536C260.723 174.883 260.83 175.196 261.043 175.474C261.259 175.753 261.705 176.021 262.386 176.277C263.067 176.534 263.563 176.749 263.877 176.92C264.189 177.091 264.455 177.34 264.673 177.665C264.891 177.99 265.001 178.412 265.001 178.93C265.001 179.619 264.747 180.203 264.242 180.677C263.737 181.152 263.12 181.389 262.392 181.389C261.664 181.389 260.881 181.129 260.093 180.606V179.792C260.962 180.429 261.716 180.749 262.354 180.749C262.884 180.749 263.333 180.575 263.7 180.231C264.065 179.887 264.249 179.464 264.249 178.962C264.249 178.582 264.136 178.238 263.909 177.931C263.682 177.626 263.222 177.339 262.528 177.072C261.835 176.806 261.338 176.592 261.042 176.43C260.743 176.266 260.49 176.035 260.284 175.733C260.075 175.432 259.972 175.043 259.972 174.568C259.972 173.91 260.223 173.347 260.73 172.883C261.233 172.419 261.842 172.186 262.553 172.186C263.264 172.186 263.942 172.375 264.628 172.752V172.75Z" fill="#231F20"/>
<path d="M137.61 190.044L141.758 199.083H141.031L139.612 195.98H135.223L133.81 199.083H133.081L137.229 190.044H137.61ZM139.347 195.402L137.413 191.175L135.485 195.402H139.347H139.347Z" fill="#231F20"/>
<path d="M153.644 190.758V191.542C152.582 190.938 151.521 190.635 150.464 190.635C149.329 190.635 148.386 191.013 147.632 191.767C146.878 192.521 146.501 193.465 146.501 194.599C146.501 195.734 146.874 196.677 147.619 197.429C148.364 198.179 149.376 198.556 150.657 198.556C151.582 198.556 152.402 198.373 153.117 198.003V195.583H151.222V195.003H153.818V198.44C152.76 198.946 151.698 199.198 150.632 199.198C149.24 199.198 148.079 198.758 147.146 197.874C146.216 196.993 145.75 195.893 145.75 194.574C145.75 193.255 146.206 192.173 147.121 191.301C148.034 190.43 149.184 189.994 150.567 189.994C151.509 189.994 152.534 190.249 153.644 190.758Z" fill="#231F20"/>
<path d="M164.449 190.109V190.688H160.249V194.278H164.341V194.863H160.249V198.504H164.553V199.083H159.557V190.109H164.45H164.449Z" fill="#231F20"/>
<path d="M178.011 190.109V199.083H177.44L170.619 191.239V199.083H169.925V190.109H170.512L177.316 197.953V190.109H178.01H178.011Z" fill="#231F20"/>
<path d="M191.496 190.746V191.503C190.408 190.926 189.342 190.636 188.298 190.636C187.185 190.636 186.252 191.016 185.504 191.773C184.754 192.531 184.379 193.479 184.379 194.612C184.379 195.746 184.756 196.705 185.51 197.445C186.264 198.185 187.225 198.556 188.395 198.556C189.37 198.556 190.435 198.25 191.586 197.637V198.356C190.525 198.918 189.465 199.198 188.407 199.198C187.041 199.198 185.903 198.76 184.993 197.885C184.082 197.011 183.628 195.919 183.628 194.612C183.628 193.305 184.092 192.2 185.022 191.319C185.95 190.436 187.059 189.995 188.343 189.995C189.353 189.995 190.404 190.245 191.496 190.746V190.746Z" fill="#231F20"/>
<path d="M203.503 190.109L200.016 194.264V199.083H199.322V194.264L195.834 190.109H196.674L199.674 193.664L202.656 190.109H203.503Z" fill="#231F20"/>
</g>
<defs>
<clipPath id="clip0_2091_1214">
<rect width="240" height="118" fill="white" transform="translate(25 86)"/>
</clipPath>
</defs>
</svg>
