<svg width="290" height="290" viewBox="0 0 290 290" fill="none" xmlns="http://www.w3.org/2000/svg">
<rect width="290" height="290" fill="white"/>
<path d="M25.3057 152.782C24.8349 148.545 24.9395 107.917 25.4037 105.282C26.816 104.812 28.3459 105.073 29.8366 105.067C36.1459 105.034 42.4617 105.047 48.771 105.06C51.7262 105.06 54.603 105.518 57.4079 106.498C65.9009 109.467 65.829 121.183 60.9058 125.158C60.3239 125.629 59.7681 126.139 58.977 126.825C63.1876 128.977 65.8224 132.089 66.437 136.796C67.1693 142.452 64.8417 147.434 59.9054 150.284C57.5909 151.618 55.0672 152.461 52.4847 152.605C43.4817 153.109 34.4656 152.788 25.2991 152.782H25.3057ZM36.8912 143.681C41.2522 143.681 45.2796 143.812 49.294 143.642C52.8377 143.491 54.7011 141.615 54.8907 138.496C55.0934 135.168 53.3869 132.873 49.9413 132.311C45.6458 131.605 41.3241 132.089 36.8847 131.984V143.681H36.8912ZM36.8781 123.929C40.8926 123.929 44.5735 124.079 48.2349 123.883C51.1901 123.726 52.9031 121.765 52.9489 119.065C52.9881 116.541 51.3993 114.599 48.5618 114.312C44.7174 113.926 40.8468 114.037 36.8781 114.266V123.929Z" fill="#2D3030"/>
<path d="M103.907 152.697H93.6749C92.9034 152.501 93.3415 151.37 92.6027 150.899C88.2679 153.717 83.5212 154.325 78.5326 153.396C73.5833 152.475 70.2946 148.82 70.0265 144.04C69.7127 138.483 72.2103 134.809 77.4865 133.292C80.5202 132.422 83.6651 132.069 86.8099 131.781C88.8759 131.592 90.9093 131.285 92.6027 130.016C93.3938 126.806 92.8773 125.439 90.6216 124.707C86.2999 123.301 83.0832 124.825 81.3571 129.107C80.7229 129.402 80.056 129.303 79.4414 129.147C76.8262 128.493 74.0605 128.571 71.3538 127.59C71.7657 123.576 73.9755 120.889 77.3885 119.307C84.3712 116.077 91.5435 116.325 98.6178 118.967C101.965 120.222 103.816 123.001 103.868 126.564C103.992 135.149 103.907 143.733 103.907 152.697ZM92.6877 136.894C90.8766 137.731 89.1113 137.711 87.4179 138.065C85.8292 138.391 84.1685 138.437 82.717 139.274C80.2522 140.693 79.886 143.864 81.9913 145.531C85.4827 148.29 92.1842 145.806 92.9296 141.438C93.165 140.072 93.3807 138.66 92.6877 136.894Z" fill="#2D3030"/>
<path d="M197.141 141.726C199.835 142.105 202.613 142.452 205.614 143.288C203.94 147.434 201.423 150.467 197.389 152.22C187.249 156.613 175.493 152.22 172.093 142.523C169.661 135.58 170.413 128.885 175.31 123.19C180.168 117.541 186.634 116.149 193.721 117.548C201.619 119.11 207.942 128.329 206.765 136.267C206.66 136.966 206.275 137.45 205.425 138.261H182.07C181.94 141.837 183.051 143.825 185.706 145.008C189.511 146.708 193.421 145.609 197.141 141.719V141.726ZM181.914 131.226H195.676C194.689 126.688 192.865 125.165 188.922 125.197C184.803 125.23 182.757 126.904 181.914 131.226Z" fill="#2D3030"/>
<path d="M265 135.593C264.98 146.799 257.612 153.926 246.144 153.821C235.029 153.723 227.752 146.355 227.844 135.279C227.935 124.217 235.206 117.077 246.451 117.012C257.723 116.946 265.019 124.256 265 135.586V135.593ZM254.388 135.456C254.526 133.782 254.16 131.958 253.597 130.212C252.519 126.871 250.021 125.197 246.445 125.191C242.979 125.191 240.567 126.714 239.468 129.957C238.22 133.645 238.135 137.437 239.547 141.111C240.789 144.335 243.195 145.773 246.66 145.694C250.086 145.609 252.44 143.988 253.565 140.771C254.14 139.137 254.493 137.424 254.388 135.462V135.456Z" fill="#2D3030"/>
<path d="M166.817 129.303C163.705 130.095 160.508 130.5 157.121 130.827C156.179 127.035 154.002 124.89 149.922 125.184C147.569 125.354 145.745 126.315 144.561 128.362C142.227 132.402 142.129 136.665 143.639 140.954C144.81 144.269 147.34 145.845 150.655 145.688C153.871 145.538 155.82 143.936 156.951 140.51C157.082 140.111 157.167 139.693 157.324 139.117C160.625 139.183 163.737 140.019 167.144 140.457C166.595 145.041 164.463 148.382 160.92 150.847C155.003 154.959 144.777 154.737 139.01 150.422C132.348 145.44 130.112 136.273 133.472 127.708C136.258 120.608 143.731 116.279 151.903 117.071C155.297 117.397 158.533 118.202 161.449 120.091C164.836 122.288 166.712 125.394 166.823 129.303H166.817Z" fill="#2D3030"/>
<path d="M212.087 105.197H222.953V152.651C219.338 152.971 215.807 152.867 212.087 152.716V105.197Z" fill="#2D3030"/>
<path d="M120.468 152.717H110.066V118.274H119.631C120.475 119.032 119.631 120.366 120.592 121.353C123.881 117.927 127.882 116.567 132.845 117.339C132.204 120.627 130.674 123.36 129.687 126.165C129.399 126.374 129.242 126.603 129.059 126.616C122.253 127.231 120.507 131.723 120.481 137.496C120.455 142.471 120.481 147.453 120.481 152.723L120.468 152.717Z" fill="#2D3030"/>
<path d="M136.166 183.505C132.368 185.643 129.092 185.394 127.484 182.995C125.888 180.621 126.536 178.451 129.765 175.685C129.419 174.162 128.209 172.625 129.053 170.86C129.439 170.049 130.086 169.474 130.883 169.075C132.747 168.134 135.349 168.637 136.532 170.167C137.964 172.024 137.572 173.534 134.774 176.692C135.159 177.182 135.558 177.686 135.944 178.183C137.526 177.222 137.755 177.169 139.605 177.365C139.998 178.758 138.762 179.745 138.651 181.001C139.043 182.413 140.684 182.982 140.965 184.499C139.082 185.237 137.48 184.603 136.16 183.498L136.166 183.505ZM129.635 180.576C131.675 182.864 132.034 182.89 134.368 180.974C133.61 179.87 133.067 178.581 131.805 178.032C130.413 178.366 129.942 179.281 129.641 180.576H129.635ZM131.616 171.854C131.733 173.037 132.093 173.868 133.113 174.279C133.989 173.769 134.623 173.129 134.473 171.854C133.688 170.782 132.812 170.5 131.616 171.854Z" fill="#2D3030"/>
<path d="M156.944 184.485V169.016C159.298 168.441 161.684 168.526 163.973 168.957C167.431 169.611 168.026 173.227 165.28 176.816C167.843 178.83 166.353 181.87 167.262 184.335C166.248 185.015 165.294 184.779 164.221 184.583C163.11 182.851 164.104 180.745 163.339 178.895C162.554 177.934 161.528 178.012 160.429 178.215C159.677 180.288 160.514 182.413 159.886 184.387C158.938 184.976 158.01 184.845 156.944 184.472V184.485ZM163.273 171.834C162.293 171.062 161.39 170.997 160.285 171.396C159.985 172.782 160.037 174.135 160.298 175.567C161.429 175.691 162.384 175.835 163.221 175.024C163.829 174.057 163.901 173.03 163.273 171.834Z" fill="#2D3030"/>
<path d="M25.4167 168.977C26.4628 168.683 27.2997 168.532 28.1955 169.042C28.8166 170.775 28.0778 172.671 28.6466 174.488C29.5685 175.312 30.6734 174.73 31.7653 174.94C32.7198 173.024 31.7783 170.991 32.4322 169.134C33.3213 168.519 34.2236 168.571 35.3089 169.095V184.289C34.4851 185.061 33.5502 184.819 32.4518 184.538C31.8568 182.478 32.4975 180.275 32.0399 178.15C31.0722 177.319 30 177.81 28.8362 177.699C27.9928 180 28.8297 182.341 28.2543 184.485C27.3651 184.904 26.5282 184.845 25.4167 184.531V168.977Z" fill="#2D3030"/>
<path d="M223.941 178.228C223.404 180.281 223.908 182.256 223.594 184.171C222.829 185.132 221.835 184.734 220.658 184.636V169.042C222.247 168.506 223.967 168.676 225.667 168.741C227.523 168.813 229.433 168.859 230.296 170.984C231.165 173.128 230.786 175.005 228.91 176.711C231.231 178.869 230.283 181.811 230.956 184.479C229.74 184.832 228.825 184.904 227.805 184.459C226.974 182.694 227.785 180.595 226.811 178.705C226.15 177.954 225.202 177.993 223.934 178.228H223.941ZM226.745 175.253C227.942 171.873 227.373 171.141 223.823 171.468C223.646 172.821 223.548 174.188 223.921 175.515C224.902 175.789 225.739 175.77 226.739 175.253H226.745Z" fill="#2D3030"/>
<path d="M41.3176 176.457C41.4288 175.522 41.5007 174.109 41.7688 172.73C42.3507 169.781 43.8087 168.559 46.6266 168.46C49.5949 168.362 51.2752 169.605 51.9552 172.566C52.6482 175.574 52.6351 178.621 51.8179 181.596C51.1117 184.178 49.5949 185.093 46.6462 185.015C43.9786 184.943 42.5403 183.877 41.8799 181.452C41.7099 180.824 41.5726 180.177 41.5072 179.536C41.4157 178.673 41.3961 177.803 41.3176 176.457ZM48.1434 182.38C49.6799 178.85 49.3661 175.136 48.4246 171.566C47.2085 170.775 46.3258 170.775 45.3517 171.618C44.2206 174.43 44.5017 177.457 44.8809 180.458C45.0705 181.968 45.842 183.152 48.1434 182.38Z" fill="#2D3030"/>
<path d="M250.865 180.111C251.871 179.457 252.708 179.68 253.526 179.876C254.264 180.589 254.022 181.837 255.356 182.583C256.716 183.112 257.618 182.328 258.089 180.824C257.834 178.817 256.272 178.457 254.853 177.914C253.068 177.234 251.499 176.319 251.119 174.207C250.583 171.193 252.139 168.918 255.023 168.519C258.488 168.042 260.332 169.415 260.816 172.847C260.051 173.468 259.194 173.174 258.233 173.083C257.527 171.899 256.984 170.193 254.957 171.259C254.101 172.069 254.245 172.985 254.598 173.887C255.866 175.149 257.546 175.443 258.965 176.221C260.907 177.293 261.809 178.849 261.443 181.066C261.064 183.354 259.684 184.629 257.265 184.956C253.042 185.531 251.276 184.237 250.865 180.111Z" fill="#2D3030"/>
<path d="M214.565 176.809C214.493 177.895 214.506 178.987 214.336 180.052C213.767 183.655 212.355 184.962 209.073 185.015C205.81 185.067 204.352 183.746 203.777 180.137C203.339 177.431 203.371 174.711 204.045 172.05C204.653 169.631 206.189 168.545 208.811 168.46C211.538 168.375 213.251 169.526 214.002 171.965C214.486 173.54 214.552 175.168 214.565 176.809ZM210.707 171.664C209.373 170.775 208.491 170.742 207.497 171.644C206.392 174.43 206.627 177.45 207.039 180.451C207.249 181.968 207.955 183.171 210.348 182.354C211.793 178.967 211.426 175.319 210.707 171.664Z" fill="#2D3030"/>
<path d="M111.387 172.841C110.491 173.383 109.733 173.168 109.033 173.148C107.993 172.854 108.307 171.559 107.412 171.147C106.581 170.873 105.725 170.775 105.13 171.657C104.489 172.605 104.594 173.619 105.502 174.246C106.47 174.913 107.614 175.312 108.68 175.829C111.563 177.241 112.537 179.117 111.786 181.811C111.112 184.211 108.785 185.374 105.411 184.995C102.501 184.668 101.606 183.583 101.481 180.183C102.168 179.392 103.057 179.771 103.835 179.765C104.992 180.222 104.326 181.667 105.097 182.105C106.653 183.132 107.686 182.713 108.484 181.386C108.817 179.176 107.268 178.601 105.692 178.012C104.057 177.404 102.436 176.77 101.776 174.9C100.828 172.22 102.161 169.376 104.764 168.65C108.235 167.676 110.707 169.179 111.387 172.841Z" fill="#2D3030"/>
<path d="M187.778 180.092C188.674 179.536 189.432 179.745 190.152 179.771C191.289 180.216 190.629 181.68 191.531 182.151C192.839 183.112 193.329 182.929 194.853 180.987C194.892 178.83 193.146 178.398 191.649 177.869C190.04 177.293 188.596 176.574 188.053 174.861C187.451 172.978 187.667 171.134 189.158 169.722C190.851 168.12 192.956 168.173 194.99 168.826C196.821 169.415 197.775 170.775 197.625 172.743C196.736 173.397 195.886 173.22 194.938 173.063C194.245 171.841 193.682 170.147 191.649 171.304C191.002 172.03 190.89 172.834 191.302 173.776C192.355 175.097 194.088 175.299 195.487 176.09C197.867 177.431 198.651 178.941 198.148 181.432C197.71 183.576 196.239 184.76 193.695 185.021C189.609 185.433 187.896 184.054 187.785 180.098L187.778 180.092Z" fill="#2D3030"/>
<path d="M173.545 168.944C176.336 168.467 179.122 168.768 181.835 168.781C182.554 169.69 182.508 170.461 181.855 171.442H177.239C176.251 172.566 176.624 173.632 176.729 174.737C178.226 175.633 179.952 174.737 181.475 175.332C182.09 175.973 182.005 176.685 181.711 177.483C180.227 178.307 178.501 177.372 176.892 178.098C176.402 179.274 176.578 180.523 176.768 181.87C178.514 182.459 180.279 181.896 182.005 182.262C182.718 182.955 182.626 183.72 182.155 184.649H173.545V168.944Z" fill="#2D3030"/>
<path d="M72.7463 184.688V169.01C75.5708 168.467 78.3364 168.787 80.8209 168.742C81.8213 169.591 81.5663 170.33 81.4617 171.128C79.7879 171.965 77.9834 171.128 76.2704 171.703C75.61 172.645 75.865 173.684 76.0939 174.946C77.6696 175.057 79.2452 175.162 80.7163 175.267C81.3963 176.051 81.2917 176.757 80.9778 177.529C79.4675 178.261 77.7611 177.372 76.1919 178.071C75.7212 179.294 75.767 180.543 76.1331 181.877C77.833 182.445 79.5918 181.935 81.2851 182.249C82.0828 182.798 81.8016 183.57 81.6709 184.629C78.853 184.904 75.9827 184.773 72.7463 184.688Z" fill="#2D3030"/>
<path d="M249.047 114.168C246.713 114.279 244.555 114.397 242.058 114.07C243.856 110.742 246.183 108.041 248.06 105.125H257.971C258.109 105.302 258.253 105.485 258.39 105.662C255.252 108.519 252.12 111.369 249.047 114.168Z" fill="#2D3030"/>
<path d="M242.496 171.997V184.354C241.28 184.891 240.358 184.897 239.292 184.426V172.331C238.377 171.102 237.108 171.788 236.121 171.285C235.336 170.598 235.65 169.807 235.925 168.853H245.555C246.15 169.631 246.013 170.35 245.778 171.075C244.967 171.86 243.856 171.193 242.496 171.997Z" fill="#2D3030"/>
<path d="M90.7458 181.746C92.6615 182.472 94.3287 181.857 95.9502 182.262C96.6367 182.988 96.5452 183.773 96.0156 184.675H87.7122V169.108C88.5294 168.474 89.4448 168.611 90.7458 169.088V181.746Z" fill="#2D3030"/>
<path d="M60.337 172.063C59.2451 171.16 58.1336 171.834 57.336 171.278C56.656 170.585 57.0614 169.84 56.9437 168.911H66.7378C67.4243 169.624 67.2478 170.415 66.764 171.389C65.8944 171.461 64.9529 171.546 63.691 171.657V184.466C62.4292 184.871 61.5073 184.943 60.337 184.283V172.069V172.063Z" fill="#2D3030"/>
</svg>
