<svg width="290" height="290" viewBox="0 0 290 290" fill="none" xmlns="http://www.w3.org/2000/svg">
<rect width="290" height="290" fill="white"/>
<path d="M82.3929 177.4V178.362H73.7246V177.4H82.3929ZM78.6241 177.709V188.194H77.4934V177.709H78.6241Z" fill="#002855"/>
<path d="M85.5935 177.4H89.4692C90.3748 177.4 91.1286 177.484 91.7192 177.653C92.3099 177.822 92.7711 178.12 93.0974 178.553C93.4236 178.986 93.5868 179.594 93.5868 180.37C93.5868 181.219 93.4068 181.866 93.0411 182.316C92.6811 182.766 92.1467 183.047 91.4436 183.16V183.098H92.6249C92.9736 183.098 93.2155 183.182 93.3618 183.357C93.508 183.531 93.5755 183.767 93.5755 184.077V188.194H92.428V183.818H86.7635V188.194H85.5991V177.4H85.5935ZM91.1286 182.682C91.5336 182.581 91.8486 182.367 92.0792 182.046C92.3099 181.726 92.4224 181.242 92.4224 180.601C92.4224 179.959 92.3099 179.447 92.0792 179.132C91.8486 178.817 91.5336 178.609 91.1398 178.514C90.7405 178.418 90.1836 178.367 89.4692 178.367H86.7579V182.839H89.4692C90.1723 182.839 90.7292 182.789 91.1286 182.687V182.682Z" fill="#002855"/>
<path d="M97.0293 177.4H98.1656V184.06C98.1656 184.257 98.1656 184.392 98.1824 184.476C98.2218 185.14 98.3512 185.686 98.5649 186.113C98.7787 186.541 99.1049 186.861 99.5381 187.069C99.9712 187.278 100.539 187.384 101.248 187.384C101.957 187.384 102.525 187.272 102.969 187.053C103.414 186.833 103.74 186.507 103.959 186.074C104.173 185.641 104.297 185.084 104.325 184.414C104.336 184.341 104.342 184.223 104.342 184.06V177.4H105.478V184.184C105.478 185.551 105.135 186.586 104.443 187.294C103.757 187.998 102.688 188.352 101.254 188.352C100.292 188.352 99.4987 188.194 98.8743 187.879C98.2443 187.564 97.7831 187.098 97.4905 186.479C97.1924 185.86 97.0462 185.101 97.0462 184.189V177.406L97.0293 177.4Z" fill="#002855"/>
<path d="M109.106 177.4H116.425V178.362H110.271V182.311H115.66V183.261H110.271V187.227H116.425V188.189H109.106V177.394V177.4Z" fill="#002855"/>
<path d="M126.623 177.4H128.749L132.36 187.857H132.27L135.882 177.4H137.946V188.194H136.81V177.737H136.872L133.199 188.194H131.393L127.72 177.737H127.782V188.194H126.617V177.4H126.623Z" fill="#002855"/>
<path d="M144.86 177.4H146.879L150.603 188.194H149.422L145.821 177.737H145.911L142.3 188.194H141.125L144.86 177.4ZM143.144 182.912H148.612V183.908H143.144V182.912Z" fill="#002855"/>
<path d="M153.646 177.4H157.521C158.427 177.4 159.181 177.484 159.771 177.653C160.362 177.822 160.823 178.12 161.15 178.553C161.476 178.986 161.639 179.594 161.639 180.37C161.639 181.219 161.459 181.866 161.093 182.316C160.733 182.766 160.199 183.047 159.496 183.16V183.098H160.677C161.026 183.098 161.268 183.182 161.414 183.357C161.56 183.531 161.628 183.767 161.628 184.077V188.194H160.48V183.818H154.816V188.194H153.651V177.4H153.646ZM159.181 182.682C159.586 182.581 159.901 182.367 160.131 182.046C160.362 181.726 160.475 181.242 160.475 180.601C160.475 179.959 160.362 179.447 160.131 179.132C159.901 178.817 159.586 178.609 159.192 178.514C158.793 178.418 158.236 178.367 157.521 178.367H154.81V182.839H157.521C158.225 182.839 158.781 182.789 159.181 182.687V182.682Z" fill="#002855"/>
<path d="M165.374 177.4H168.85C169.778 177.4 170.538 177.479 171.134 177.631C171.725 177.782 172.18 178.052 172.495 178.435C172.81 178.817 172.968 179.357 172.968 180.049C172.968 180.741 172.76 181.343 172.349 181.793C171.939 182.243 171.415 182.491 170.797 182.541V182.479C171.685 182.507 172.4 182.772 172.945 183.261C173.491 183.751 173.767 184.443 173.767 185.326C173.767 186.029 173.604 186.591 173.277 187.008C172.951 187.424 172.479 187.728 171.865 187.913C171.252 188.099 170.498 188.189 169.598 188.189H165.374V177.394V177.4ZM169.48 182.102C170.009 182.074 170.448 181.996 170.78 181.883C171.117 181.765 171.376 181.574 171.562 181.309C171.747 181.045 171.837 180.685 171.837 180.235C171.837 179.695 171.73 179.29 171.522 179.02C171.314 178.75 171.022 178.57 170.65 178.486C170.279 178.401 169.773 178.351 169.126 178.339H166.538V182.119H168.867C169.154 182.119 169.357 182.119 169.48 182.102ZM170.138 187.233C170.69 187.204 171.145 187.126 171.5 186.996C171.854 186.867 172.135 186.659 172.332 186.361C172.529 186.063 172.63 185.658 172.63 185.134C172.63 184.684 172.54 184.313 172.355 184.015C172.169 183.717 171.91 183.492 171.567 183.34C171.224 183.188 170.802 183.093 170.302 183.064C170.003 183.048 169.773 183.036 169.615 183.036H166.538V187.244H169.615C169.852 187.244 170.026 187.244 170.138 187.227V187.233Z" fill="#002855"/>
<path d="M177.288 177.4H184.606V178.362H178.452V182.311H183.841V183.261H178.452V187.227H184.606V188.189H177.288V177.394V177.4Z" fill="#002855"/>
<path d="M188.178 187.958C188.021 187.801 187.942 187.587 187.942 187.323V177.4H189.106V187.233H194.54V188.194H188.842C188.555 188.194 188.336 188.116 188.178 187.958Z" fill="#002855"/>
<path d="M197.808 187.958C197.651 187.801 197.572 187.587 197.572 187.323V177.4H198.736V187.233H204.17V188.194H198.472C198.185 188.194 197.966 188.116 197.808 187.958Z" fill="#002855"/>
<path d="M210.527 177.4H212.546L216.27 188.194H215.089L211.489 177.737H211.579L207.967 188.194H206.792L210.527 177.4ZM208.811 182.912H214.279V183.908H208.811V182.912Z" fill="#002855"/>
<path d="M188.628 115.192H191.064V126.527C191.064 126.83 191.075 127.061 191.092 127.224C191.148 128.383 191.339 129.328 191.683 130.059C192.02 130.791 192.554 131.336 193.286 131.691C194.017 132.045 194.99 132.225 196.2 132.225C197.409 132.225 198.416 132.039 199.153 131.662C199.89 131.286 200.43 130.734 200.773 129.992C201.11 129.255 201.307 128.293 201.363 127.117V115.192H203.822V127.033C203.822 129.424 203.192 131.235 201.937 132.472C200.683 133.71 198.77 134.329 196.205 134.329C194.495 134.329 193.078 134.047 191.953 133.485C190.828 132.922 189.995 132.107 189.455 131.027C188.909 129.947 188.639 128.614 188.639 127.027V115.187L188.628 115.192Z" fill="#002855"/>
<path d="M207.337 121.194C207.641 120.902 208.113 120.755 208.755 120.755H216.264V122.786H209.233V134.042H206.882V122.6C206.882 121.959 207.033 121.492 207.337 121.2V121.194Z" fill="#002855"/>
<path d="M218.807 114.393H221.158V124.524H220.973C221.383 123.292 222.081 122.313 223.071 121.582C224.061 120.851 225.332 120.485 226.879 120.485C228.111 120.485 229.196 120.778 230.141 121.368C231.086 121.959 231.812 122.769 232.318 123.798C232.825 124.833 233.078 126.02 233.078 127.354C233.078 128.687 232.825 129.935 232.318 130.976C231.812 132.017 231.081 132.832 230.141 133.423C229.196 134.014 228.111 134.306 226.879 134.306C225.844 134.306 224.938 134.143 224.151 133.811C223.369 133.479 222.711 133.007 222.188 132.394C221.659 131.78 221.254 131.06 220.973 130.239H221.158V134.036H218.807V114.393ZM221.884 130.087C222.328 130.819 222.924 131.364 223.661 131.73C224.398 132.095 225.208 132.275 226.08 132.275C226.952 132.275 227.762 132.095 228.46 131.73C229.157 131.364 229.703 130.819 230.102 130.087C230.501 129.356 230.704 128.45 230.704 127.359C230.704 126.268 230.501 125.418 230.102 124.698C229.703 123.978 229.151 123.433 228.46 123.067C227.762 122.702 226.969 122.522 226.08 122.522C225.191 122.522 224.398 122.707 223.661 123.067C222.919 123.433 222.328 123.978 221.884 124.71C221.439 125.441 221.214 126.324 221.214 127.359C221.214 128.445 221.439 129.356 221.884 130.087Z" fill="#002855"/>
<path d="M236.88 127.691C237.594 127.022 238.714 126.617 240.249 126.476L245.464 125.97C245.391 124.76 245.07 123.86 244.502 123.281C243.934 122.702 243.051 122.415 241.853 122.415C240.874 122.415 240.081 122.662 239.473 123.163C238.866 123.664 238.511 124.44 238.404 125.486H236.081C236.188 124.468 236.486 123.59 236.976 122.842C237.465 122.094 238.123 121.515 238.939 121.104C239.76 120.693 240.739 120.491 241.881 120.491C243.163 120.491 244.249 120.738 245.126 121.228C246.01 121.717 246.679 122.415 247.129 123.315C247.585 124.215 247.81 125.261 247.81 126.454V132.017H249.762V134.047H247.326C246.825 134.047 246.437 133.907 246.15 133.631C245.863 133.356 245.723 132.956 245.723 132.439V130.38H245.83C245.633 131.128 245.318 131.786 244.879 132.36C244.44 132.928 243.838 133.401 243.073 133.766C242.308 134.132 241.363 134.312 240.238 134.312C238.528 134.312 237.358 133.901 236.734 133.08C236.109 132.259 235.8 131.353 235.8 130.352C235.8 129.249 236.154 128.36 236.869 127.691H236.88ZM238.804 131.769C239.248 132.163 239.867 132.36 240.649 132.36C241.611 132.36 242.449 132.157 243.163 131.747C243.878 131.336 244.44 130.774 244.845 130.065C245.256 129.35 245.458 128.552 245.458 127.657L240.621 128.164C240.514 128.164 240.396 128.18 240.272 128.22C239.524 128.293 238.978 128.473 238.641 128.765C238.303 129.058 238.134 129.491 238.134 130.065C238.134 130.813 238.359 131.387 238.804 131.775V131.769Z" fill="#002855"/>
<path d="M252.276 120.755H254.627V124.766H254.521C254.824 123.427 255.454 122.381 256.416 121.627C257.378 120.868 258.616 120.491 260.134 120.491C261.153 120.491 262.019 120.705 262.739 121.132C263.459 121.56 264.016 122.195 264.409 123.028C264.803 123.866 265 124.873 265 126.049V134.042H262.593V126.313C262.593 124.957 262.328 123.99 261.805 123.399C261.276 122.809 260.444 122.516 259.307 122.516C258.346 122.516 257.519 122.752 256.821 123.225C256.124 123.697 255.584 124.378 255.201 125.272C254.819 126.161 254.627 127.207 254.627 128.4V134.042H252.276V120.755Z" fill="#002855"/>
<path d="M191.058 142.322V161.171H188.623V142.322H191.058ZM203.703 150.821V152.908H189.163V150.821H203.703ZM204.266 142.322V161.171H201.808V142.322H204.266Z" fill="#002855"/>
<path d="M208.327 150.973C208.918 149.933 209.745 149.112 210.813 148.515C211.882 147.919 213.114 147.621 214.504 147.621C215.893 147.621 217.119 147.919 218.182 148.515C219.246 149.112 220.072 149.938 220.669 150.99C221.265 152.042 221.563 153.212 221.563 154.495C221.563 155.777 221.265 156.998 220.669 158.05C220.072 159.102 219.24 159.929 218.182 160.536C217.119 161.144 215.899 161.447 214.504 161.447C213.109 161.447 211.877 161.144 210.802 160.536C209.722 159.929 208.895 159.102 208.316 158.05C207.737 156.998 207.45 155.811 207.45 154.495C207.45 153.178 207.742 152.02 208.333 150.979L208.327 150.973ZM210.347 156.987C210.712 157.729 211.247 158.314 211.95 158.753C212.653 159.192 213.502 159.405 214.504 159.405C215.505 159.405 216.326 159.186 217.029 158.753C217.732 158.314 218.261 157.729 218.621 156.987C218.976 156.25 219.156 155.412 219.156 154.489C219.156 153.567 218.976 152.785 218.621 152.042C218.267 151.305 217.732 150.72 217.029 150.293C216.326 149.865 215.482 149.652 214.504 149.652C213.525 149.652 212.653 149.865 211.95 150.293C211.247 150.72 210.712 151.305 210.347 152.042C209.981 152.779 209.795 153.595 209.795 154.489C209.795 155.383 209.975 156.25 210.347 156.987Z" fill="#002855"/>
<path d="M232.442 147.885V149.916H222.952V147.885H232.442ZM232.976 161.172H227.762C227.121 161.172 226.648 161.02 226.344 160.716C226.041 160.412 225.889 159.94 225.889 159.298V144.516L228.268 143.796V159.169L232.971 159.141V161.172H232.976Z" fill="#002855"/>
<path d="M246.505 153.285L245.38 154.461V153.741C245.38 152.402 245.003 151.367 244.243 150.625C243.484 149.888 242.466 149.516 241.183 149.516C240.401 149.516 239.698 149.685 239.085 150.023C238.472 150.36 237.988 150.855 237.639 151.508C237.291 152.16 237.116 152.937 237.116 153.848V154.703C237.116 156.148 237.471 157.313 238.185 158.207C238.899 159.096 239.94 159.546 241.313 159.546C242.415 159.546 243.315 159.276 244.001 158.742C244.688 158.207 245.149 157.459 245.38 156.497H247.731C247.41 157.943 246.741 159.124 245.728 160.052C244.71 160.98 243.253 161.442 241.346 161.442C239.957 161.442 238.764 161.132 237.78 160.508C236.79 159.884 236.053 159.04 235.558 157.971C235.069 156.902 234.821 155.698 234.821 154.36C234.821 152.953 235.086 151.738 235.609 150.726C236.132 149.708 236.874 148.937 237.825 148.414C238.776 147.891 239.895 147.626 241.183 147.626C242.471 147.626 243.625 147.885 244.603 148.403C245.582 148.92 246.341 149.663 246.876 150.636C247.41 151.609 247.68 152.773 247.68 154.123V154.978H236.801V153.297H246.505V153.285Z" fill="#002855"/>
<path d="M249.525 159.141H253.244V143.554H250.465V141.523H254.234C254.678 141.523 255.021 141.641 255.263 141.872C255.505 142.103 255.623 142.434 255.623 142.862V159.141H259.341V161.172H249.531V159.141H249.525Z" fill="#002855"/>
<path d="M104.944 131.077C102.772 129.615 100.044 128.889 96.748 128.889C93.1592 128.889 90.3861 129.682 88.4285 131.269C86.9041 132.501 85.6835 133.952 84.7385 135.611V115.181H74.0396V161.172H84.7385V154.962C85.2616 155.946 85.8354 156.874 86.5216 157.695C87.5454 158.927 88.9067 159.917 90.6223 160.665C92.3323 161.414 94.3742 161.79 96.7537 161.79C100.05 161.79 102.778 161.059 104.949 159.602C107.121 158.145 108.735 156.171 109.798 153.69C110.861 151.21 111.396 148.403 111.396 145.275C111.396 142.148 110.867 139.414 109.798 136.956C108.735 134.492 107.121 132.534 104.949 131.072L104.944 131.077ZM99.7181 149.252C99.1106 150.276 98.2162 151.058 97.0293 151.598C95.8424 152.138 94.3686 152.413 92.6192 152.413C90.8698 152.413 89.4185 152.16 88.271 151.665C87.1235 151.165 86.2572 150.383 85.6722 149.32C85.0872 148.256 84.7947 146.912 84.7947 145.281C84.7947 143.649 85.0872 142.339 85.6722 141.338C86.2572 140.336 87.1235 139.583 88.271 139.088C89.4185 138.587 90.8698 138.339 92.6192 138.339C94.3686 138.339 95.8424 138.581 97.0293 139.059C98.2162 139.538 99.1162 140.291 99.7181 141.315C100.32 142.339 100.624 143.661 100.624 145.286C100.624 146.912 100.32 148.24 99.7181 149.258V149.252Z" fill="#002855"/>
<path d="M166.477 151.783V120.435C166.477 118.725 166.01 117.42 165.07 116.525C164.131 115.631 162.809 115.181 161.099 115.181H148.083V124.564H155.716V151.783H146.806V143.025C146.806 139.774 146.086 137.091 144.646 134.987C143.206 132.883 141.276 131.336 138.857 130.357C136.439 129.379 133.682 128.889 130.6 128.889C127.517 128.889 124.935 129.367 122.494 130.329C120.053 131.291 118.09 132.726 116.61 134.644C115.131 136.562 114.366 138.857 114.326 141.523H124.339C124.378 140.106 124.879 139.009 125.841 138.238C126.803 137.468 128.237 137.079 130.161 137.079C132.287 137.079 133.8 137.434 134.695 138.143C135.589 138.851 136.039 140.044 136.039 141.709L126.465 142.71C121.751 143.25 118.416 144.308 116.453 145.871C114.49 147.435 113.511 149.657 113.511 152.537C113.511 154.832 114.355 156.947 116.042 158.888C117.73 160.828 120.79 161.796 125.211 161.796C128.299 161.796 130.814 161.369 132.749 160.513C134.689 159.658 136.169 158.545 137.192 157.167C138.064 155.991 138.734 154.596 139.229 152.993V156.351C139.229 157.892 139.656 159.085 140.511 159.917C141.366 160.75 142.587 161.166 144.173 161.166H175.235V151.783H166.477ZM134.948 150.349C134.217 151.311 133.249 152.036 132.04 152.537C130.83 153.038 129.475 153.285 127.973 153.285C126.763 153.285 125.802 153.1 125.093 152.723C124.384 152.346 124.03 151.682 124.03 150.72C124.03 149.972 124.311 149.426 124.873 149.095C125.436 148.763 126.409 148.51 127.782 148.346C128.035 148.307 128.26 148.262 128.468 148.223L136.039 147.036C136.039 148.285 135.674 149.393 134.942 150.355L134.948 150.349Z" fill="#002855"/>
<path d="M60.4774 119.158C56.973 117.178 52.8836 116.188 48.2147 116.188C43.5459 116.188 39.3946 117.178 35.8902 119.158C32.3857 121.138 29.6969 123.872 27.8182 127.354C25.9394 130.835 25 134.745 25 139.087C25 143.43 25.9394 147.401 27.8182 150.883C29.6969 154.365 32.3857 157.099 35.8902 159.079C39.3946 161.059 43.5009 162.049 48.2147 162.049C52.9286 162.049 56.973 161.059 60.4774 159.079C63.9819 157.099 66.6706 154.365 68.5494 150.883C70.4282 147.401 71.3676 143.469 71.3676 139.087C71.3676 134.706 70.4282 130.841 68.5494 127.354C66.6706 123.872 63.9819 121.138 60.4774 119.158ZM48.181 154.348C41.4759 154.348 36.0364 147.525 36.0364 139.116C36.0364 130.706 41.4759 123.883 48.181 123.883C54.8861 123.883 60.3255 130.706 60.3255 139.116C60.3255 147.525 54.8861 154.348 48.181 154.348Z" fill="#002855"/>
<path d="M41.8188 111.761L49.1652 101H59.1779V104.943L43.6301 113.786L41.8188 111.761Z" fill="#002855"/>
</svg>
