<svg width="290" height="290" viewBox="0 0 290 290" fill="none" xmlns="http://www.w3.org/2000/svg">
<rect width="290" height="290" fill="white"/>
<path d="M52.9451 134.191C52.877 137.998 52.5793 141.762 51.3841 145.425C50.108 149.316 47.5772 151.681 43.4641 152.222C40.1124 152.664 36.7649 152.706 33.4387 152.034C30.5761 151.46 28.4919 149.852 27.2542 147.19C26.0292 144.548 25.455 141.741 25.2253 138.866C24.817 133.698 24.8425 128.551 26.3397 123.519C26.9607 121.444 27.8242 119.5 29.5638 118.075C30.9249 116.96 32.5285 116.399 34.2299 116.139C37.3264 115.667 40.4314 115.672 43.5407 116.097C47.3348 116.616 49.8231 118.704 51.1501 122.273C52.5878 126.127 52.8728 130.142 52.9451 134.191ZM45.5186 134.195C45.5186 133.03 45.5738 131.86 45.5058 130.695C45.3824 128.56 45.208 126.433 44.6083 124.357C44.1107 122.635 42.9792 121.746 41.2226 121.69C39.7168 121.643 38.2069 121.639 36.7054 121.694C34.9615 121.758 33.7705 122.609 33.3324 124.361C33.192 124.927 33.0261 125.489 32.9283 126.063C32.1457 130.601 32.2052 135.161 32.5753 139.725C32.7029 141.328 32.9751 142.902 33.5025 144.429C33.9066 145.599 34.7148 146.284 35.9185 146.492C37.9474 146.841 39.9848 146.837 42.0137 146.492C43.1579 146.301 43.9533 145.667 44.3701 144.561C44.6253 143.876 44.8422 143.187 44.9741 142.464C45.4718 139.725 45.5951 136.96 45.5228 134.187L45.5186 134.195Z" fill="#4C8690"/>
<path d="M133.914 123.762V113.579H140.694V151.048C140.379 151.503 139.843 151.622 139.32 151.716C134.65 152.558 129.958 152.907 125.254 152.06C120.881 151.273 118.448 148.947 117.602 144.557C116.773 140.27 116.696 135.944 117.67 131.665C118.738 126.952 121.745 124.281 126.517 123.634C128.019 123.43 129.52 123.417 131.03 123.553C131.894 123.63 132.761 123.685 133.918 123.77L133.914 123.762ZM133.82 128.845C131.753 128.487 129.873 128.377 127.997 128.764C126.322 129.113 125.211 130.189 124.829 131.839C123.867 135.974 123.914 140.129 124.761 144.276C124.96 145.259 125.479 146.148 126.373 146.616C128.789 147.883 131.298 147.53 133.82 147.164V128.845Z" fill="#4C8690"/>
<path d="M184.245 129.253V151.869C181.923 152.103 179.77 151.979 177.465 151.971V124.77C178.235 124.268 179.141 124.315 179.987 124.187C184.326 123.536 188.677 123.107 193.067 123.656C193.258 123.681 193.454 123.702 193.645 123.732C197.835 124.366 199.911 126.552 200.302 130.78C200.395 131.797 200.408 132.822 200.413 133.843C200.421 139.291 200.421 144.74 200.413 150.189C200.413 150.712 200.532 151.261 200.183 151.877H193.798C193.369 151.312 193.526 150.708 193.522 150.138C193.509 144.736 193.522 139.338 193.513 133.936C193.509 129.661 192.539 128.709 188.26 128.713C186.95 128.713 185.657 128.807 184.245 129.253Z" fill="#4C8690"/>
<path d="M154.565 140.057C153.88 143.949 155.756 146.607 159.401 147.152C162.348 147.59 165.219 147.147 168.078 146.467C168.584 146.348 169.069 146.016 169.788 146.365C170.026 147.734 170.141 149.21 170.183 150.712C168.686 151.686 167.044 151.92 165.419 152.171C162.319 152.651 159.214 152.719 156.134 152.009C152.574 151.188 149.856 149.227 148.644 145.727C146.798 140.401 146.785 135.008 148.92 129.742C150.307 126.318 153.038 124.408 156.623 123.711C158.895 123.273 161.179 123.281 163.446 123.736C166.721 124.391 168.992 126.254 170.017 129.478C170.949 132.405 170.966 135.421 170.715 138.445C170.672 138.968 170.579 139.521 169.796 140.057H154.565ZM154.194 135.633H164.628C164.756 133.268 165.164 130.852 163.157 129.206C161.302 127.688 158.954 127.845 156.938 128.845C154.246 130.18 154.348 132.902 154.19 135.629L154.194 135.633Z" fill="#4C8690"/>
<path d="M246.32 151.273C245.218 151.971 243.887 151.996 242.603 152.154C238.532 152.651 234.453 152.741 230.391 152.06C226.167 151.35 224.428 149.304 224.342 145.016C224.321 143.945 224.394 142.881 224.555 141.818C224.895 139.546 226.116 138.002 228.239 137.139C230.48 136.229 232.866 136.059 235.219 135.714C236.656 135.501 238.102 135.344 239.672 135.144C239.817 133.74 239.889 132.409 239.498 131.086C239.17 129.976 238.332 129.462 237.269 129.232C235.193 128.777 233.109 128.968 231.025 129.113C229.732 129.202 228.447 129.513 227.065 129.427C226.733 127.811 226.576 126.242 226.597 124.63C227.469 124.115 228.396 124.026 229.298 123.902C232.679 123.439 236.069 123.158 239.472 123.668C244.198 124.379 246.477 127.012 246.49 131.792C246.507 137.824 246.495 143.855 246.49 149.887C246.49 150.32 246.537 150.759 246.312 151.273H246.32ZM239.702 139.517C238.417 139.517 237.307 139.517 236.197 139.517C231.833 139.5 230.778 140.38 231.118 145.297C231.14 145.586 231.212 145.871 231.28 146.156C231.467 146.918 231.914 147.509 232.671 147.705C235.006 148.304 237.337 148.121 239.697 147.76V139.525L239.702 139.517Z" fill="#4C8690"/>
<path d="M221.169 129.257H216.431C215.895 129.759 216.044 130.274 216.044 130.742C216.031 135.365 216.031 139.984 216.044 144.608C216.048 146.888 216.401 147.228 218.647 147.283C219.175 147.296 219.719 147.181 220.365 147.539C220.502 148.9 220.331 150.32 220.187 151.852C217.354 152.579 214.585 153 211.871 151.784C209.791 150.856 209.141 148.981 209.132 146.858C209.107 141.605 209.124 136.348 209.115 131.095C209.115 130.567 209.209 130.027 208.975 129.436C207.699 129.019 206.316 129.466 204.794 129.121C204.589 127.496 204.738 125.829 204.713 124.153C206.18 123.643 207.631 124.221 209.136 123.698V116.654C211.472 116.454 213.628 116.514 215.98 116.616V123.702C217.745 124.187 219.413 123.724 221.169 124.064C221.403 125.735 221.34 127.394 221.182 129.262L221.169 129.257Z" fill="#4C8690"/>
<path d="M97.7297 124.174C97.7935 125.948 97.6447 127.526 97.5383 129.019C97.1045 129.351 96.7812 129.185 96.4495 129.134C95.5392 128.989 94.629 128.798 93.7102 128.738C90.0522 128.504 88.3041 129.785 87.7299 133.387C87.2067 136.663 87.1386 139.985 87.8532 143.251C88.4274 145.871 89.78 146.909 92.4597 147.054C94.1143 147.143 95.7349 146.841 97.5001 146.586C97.8531 148.27 97.7935 149.904 97.8956 151.469C97.3001 152.081 96.5813 152.043 95.9305 152.154C93.2253 152.63 90.5201 152.715 87.8277 152.043C84.7184 151.269 82.4726 149.41 81.439 146.399C79.5164 140.793 79.5334 135.102 81.5411 129.53C82.7363 126.216 85.2969 124.272 88.7847 123.677C91.7409 123.171 94.6715 123.337 97.7212 124.174H97.7297Z" fill="#4C8690"/>
<path d="M254.019 113.545H260.374C260.761 114.221 260.629 114.868 260.629 115.489C260.637 124.885 260.633 134.281 260.633 143.677C260.633 144.161 260.616 144.651 260.642 145.135C260.727 146.782 261.22 147.249 262.896 147.339C263.521 147.373 264.164 147.249 264.912 147.505C265.125 148.853 264.891 150.235 264.844 151.856C261.799 152.596 258.821 153.085 255.92 151.511C254.461 150.72 254.036 149.215 253.832 147.679C253.738 146.96 253.755 146.22 253.755 145.493C253.751 135.416 253.751 125.34 253.755 115.259C253.755 114.736 253.641 114.187 254.006 113.541L254.019 113.545Z" fill="#4C8690"/>
<path d="M76.0925 146.594C76.2116 148.313 76.4753 149.921 76.4413 151.579C75.3184 152.166 74.1572 152.235 73.0087 152.371C71.3584 152.566 69.7166 152.571 68.062 152.371C63.6894 151.843 60.7503 149.538 59.5636 145.293C58.2322 140.512 58.2407 135.65 59.5763 130.882C60.8864 126.216 64.0892 123.8 68.9212 123.451C71.6349 123.256 74.4124 123.566 76.2244 124.302C76.2371 125.88 76.2159 127.505 76.0542 129.04C75.5991 129.325 75.2758 129.168 74.9441 129.117C73.9828 128.972 73.0258 128.777 72.056 128.73C68.4278 128.56 66.7349 129.959 66.233 133.562C65.8119 136.561 65.7864 139.576 66.2415 142.575C66.7221 145.765 68.2236 147.003 71.469 147.062C72.9747 147.088 74.4464 146.786 76.0883 146.586L76.0925 146.594Z" fill="#4C8690"/>
<path d="M103.438 124.021H110.044V151.949C107.857 152.022 105.709 152.047 103.438 151.915V124.021Z" fill="#4C8690"/>
<path d="M137.968 171.856C138.359 172.498 138.801 172.927 139.401 173.327C140.03 172.668 140.064 171.728 140.583 170.967C141.136 170.694 141.753 170.886 142.463 170.813C142.421 172.353 141.315 173.353 141.009 174.633C141.481 175.437 142.115 175.99 143.021 176.113C143.14 176.662 143.195 177.138 142.948 177.594C141.566 178.18 140.617 177.483 139.758 176.479C139.065 176.794 138.691 177.521 137.946 177.687C137.223 177.849 136.496 177.819 135.768 177.802C134.612 177.776 133.591 177.428 133.229 176.232C132.838 174.944 132.761 173.625 133.799 172.532C134.097 172.217 134.458 171.97 134.884 171.613C133.905 170.516 133.425 169.252 133.786 167.777C133.905 167.283 134.182 166.9 134.616 166.624C135.951 165.777 138.959 166.058 139.665 167.1C140.579 168.453 139.941 170.29 137.968 171.851V171.856ZM138.287 174.961C137.585 174.204 137.04 173.404 136.181 172.953C134.994 173.825 134.897 174.255 135.466 175.816C136.904 176.445 137.368 176.322 138.287 174.961ZM137.759 167.972C137.108 167.674 136.517 167.636 135.956 168.023C135.543 169.589 135.637 169.873 136.811 170.69C138.057 169.933 138.146 169.703 137.759 167.972Z" fill="#4C8690"/>
<path d="M72.1325 170.899C72.5408 169.384 72.1112 167.908 72.4387 166.475C73.115 166.292 73.7743 166.292 74.5272 166.488V177.53C73.8126 177.819 73.1618 177.742 72.443 177.598C72.124 176.062 72.4898 174.497 72.2218 172.957C71.1031 172.672 70.0525 172.804 68.9381 172.834C68.4192 174.421 69.0189 176.058 68.5596 177.589C67.9045 177.777 67.292 177.772 66.5647 177.568V166.509C67.19 166.199 67.8535 166.424 68.5468 166.347C68.9849 167.879 68.4405 169.414 68.9254 170.877C70.01 171.056 71.0521 170.988 72.1325 170.899Z" fill="#4C8690"/>
<path d="M78.5041 171.949C78.4488 170.775 78.5849 169.623 78.9295 168.496C79.3038 167.266 80.0864 166.501 81.3837 166.301C81.5751 166.271 81.7665 166.224 81.9579 166.199C85.4117 165.756 86.9983 167.015 87.2918 170.482C87.4236 172.034 87.4406 173.595 87.0195 175.118C86.4964 177.011 85.6499 177.696 83.7189 177.811C79.9333 178.036 78.7125 176.939 78.5084 173.119C78.4871 172.732 78.5084 172.341 78.5084 171.954L78.5041 171.949ZM84.4972 168.368C83.3318 167.994 82.3663 167.9 81.2859 168.483C80.6606 170.903 80.5713 173.332 81.4305 175.829C82.5151 175.973 83.4466 176.203 84.527 175.569C85.182 173.208 85.1948 170.78 84.4972 168.368Z" fill="#4C8690"/>
<path d="M191.204 172.102C191.255 173.327 191.119 174.527 190.706 175.688C190.251 176.968 189.362 177.645 188.005 177.789C184.024 178.206 182.807 177.241 182.365 173.238C182.182 171.571 182.365 169.933 182.863 168.338C183.212 167.224 183.969 166.535 185.134 166.322C185.181 166.314 185.232 166.305 185.279 166.297C189.043 165.535 190.846 166.854 191.195 170.648C191.238 171.128 191.199 171.618 191.199 172.107L191.204 172.102ZM188.362 175.684C189.081 173.191 189.111 170.733 188.337 168.253C187.206 168.057 186.312 167.934 185.232 168.372C184.479 170.835 184.466 173.319 185.266 175.739C186.406 176.05 187.252 176.084 188.362 175.684Z" fill="#4C8690"/>
<path d="M153.62 173.617V177.53C152.846 177.781 152.2 177.781 151.455 177.551V166.415C153.101 166.322 154.701 166.207 156.266 166.458C158.703 166.854 159.694 169.971 158.057 171.936C157.814 172.23 157.487 172.455 157.108 172.791C157.946 174.369 158.75 175.892 159.613 177.521C158.737 177.827 157.993 177.717 157.129 177.623C156.462 176.326 155.777 174.99 155.135 173.736C154.692 173.315 154.284 173.37 153.62 173.617ZM156.062 168.44C155.3 167.951 154.539 167.921 153.688 168.21C153.654 169.44 153.544 170.588 153.765 171.766C154.607 171.949 155.339 171.907 156.075 171.328C156.453 170.397 156.534 169.431 156.062 168.44Z" fill="#4C8690"/>
<path d="M200.842 172.821C201.693 174.42 202.484 175.909 203.343 177.525C202.484 177.823 201.74 177.708 200.893 177.653C200.187 176.305 199.473 174.935 198.792 173.638C198.358 173.344 197.98 173.395 197.537 173.506C197.125 174.79 197.601 176.177 197.248 177.542C196.589 177.823 195.938 177.742 195.181 177.598V166.386C196.836 166.36 198.477 166.19 200.094 166.483C202.42 166.909 203.36 169.997 201.799 171.924C201.557 172.221 201.238 172.455 200.838 172.825L200.842 172.821ZM197.486 168.138C197.342 169.38 197.299 170.563 197.508 171.732C199.889 172.021 200.57 171.056 199.83 168.525C199.162 167.896 198.367 168.002 197.486 168.142V168.138Z" fill="#4C8690"/>
<path d="M169.086 177.64H162.991V166.445H168.869C169.12 167.02 169.107 167.526 168.878 168.079C167.75 168.381 166.568 168.036 165.394 168.304C165.02 169.142 165.258 169.988 165.249 170.975H168.597C168.852 171.583 168.826 172.056 168.669 172.587C167.623 172.957 166.483 172.583 165.317 172.855C165.117 173.766 165.16 174.659 165.279 175.616C166.525 175.986 167.806 175.599 169.022 175.858C169.409 176.415 169.345 176.96 169.082 177.64H169.086Z" fill="#4C8690"/>
<path d="M100.137 166.398H105.935C106.309 166.93 106.211 167.445 106.067 168.028C104.931 168.449 103.685 167.981 102.477 168.338C102.255 169.172 102.281 169.971 102.464 170.809C103.54 171.239 104.693 170.758 105.765 171.111C106.05 171.579 105.969 172.043 105.828 172.57C104.786 172.991 103.634 172.54 102.464 172.889C102.255 173.77 102.294 174.663 102.438 175.611C103.685 175.994 104.969 175.586 106.198 175.862C106.59 176.411 106.449 176.964 106.335 177.615H100.137V166.398Z" fill="#4C8690"/>
<path d="M110.269 113.145V119.177C107.942 119.445 105.658 119.33 103.183 119.24C103.042 117.173 103.102 115.225 103.14 113.149C105.599 112.949 107.887 112.954 110.269 113.141V113.145Z" fill="#4C8690"/>
<path d="M172.514 177.419C172.348 176.794 172.408 176.33 172.655 175.82C173.807 175.697 175.028 176.33 176.185 175.68C176.814 174.837 176.534 174.123 175.849 173.506C175.164 172.889 174.433 172.324 173.718 171.737C172.727 170.924 172.387 169.865 172.535 168.615C172.676 167.432 173.216 166.696 174.369 166.45C175.802 166.139 177.248 166.186 178.618 166.569C178.852 167.151 178.797 167.619 178.643 168.164C177.499 168.419 176.249 167.726 175.139 168.419C174.62 169.257 174.883 169.92 175.568 170.469C176.21 170.988 176.878 171.473 177.538 171.975C178.495 172.706 178.945 173.685 178.924 174.88C178.894 176.705 177.984 177.687 176.155 177.764C174.951 177.815 173.731 177.862 172.514 177.415V177.419Z" fill="#4C8690"/>
<path d="M124.284 166.56C124.522 167.241 124.395 167.704 124.31 168.189C123.089 168.389 121.847 167.734 120.737 168.44C120.256 169.308 120.528 169.963 121.226 170.503C121.877 171.009 122.549 171.49 123.191 172.009C124.216 172.83 124.68 173.897 124.548 175.212C124.395 176.747 123.582 177.581 122.047 177.764C120.95 177.896 119.291 177.747 118.164 177.411C117.959 177.156 117.993 176.862 118.032 176.573C118.061 176.339 118.129 176.109 118.189 175.833C119.448 175.688 120.724 176.364 121.864 175.667C122.396 174.795 122.162 174.119 121.502 173.544C120.809 172.94 120.09 172.358 119.38 171.771C118.342 170.92 117.993 169.818 118.185 168.521C118.355 167.351 118.925 166.658 120.095 166.428C121.485 166.156 122.881 166.228 124.28 166.565L124.284 166.56Z" fill="#4C8690"/>
<path d="M221.506 166.717C221.654 167.249 221.591 167.67 221.446 168.151C220.31 168.415 219.124 167.794 218.013 168.338C217.316 169.078 217.55 169.767 218.205 170.346C218.856 170.924 219.583 171.418 220.272 171.953C221.361 172.796 221.816 173.902 221.671 175.275C221.523 176.679 220.8 177.551 219.413 177.717C218.065 177.879 216.708 177.866 215.402 177.479C215.049 176.934 215.232 176.42 215.325 175.85C216.538 175.641 217.822 176.39 218.992 175.662C219.553 174.854 219.341 174.169 218.69 173.587C218.005 172.974 217.282 172.4 216.572 171.813C215.742 171.128 215.266 170.273 215.266 169.172C215.266 167.466 216.044 166.56 217.746 166.343C219.039 166.177 220.404 166.309 221.51 166.722L221.506 166.717Z" fill="#4C8690"/>
<path d="M207.763 168.436C206.861 168.066 206.129 168.393 205.491 168.015C205.308 167.513 205.279 167.007 205.546 166.424H212.186C212.345 166.94 212.379 167.485 212.288 168.057C211.646 168.436 210.842 167.972 210.042 168.538V177.513C209.23 177.772 208.579 177.781 207.767 177.513V168.432L207.763 168.436Z" fill="#4C8690"/>
<path d="M96.7855 168.023C96.1135 168.41 95.3266 168.036 94.5057 168.453V177.436C93.7528 177.849 93.1361 177.7 92.3109 177.619V168.564C91.4645 167.972 90.6606 168.436 89.9928 168.049C89.7631 167.539 89.8014 167.028 90.0013 166.433H96.7303C96.9982 167.007 96.9599 167.517 96.7855 168.019V168.023Z" fill="#4C8690"/>
<path d="M110.124 166.394H112.128V175.488C113.161 176.05 114.186 175.552 115.075 175.913C115.369 176.449 115.309 176.96 115.109 177.623C113.519 177.798 111.889 177.679 110.124 177.687V166.39V166.394Z" fill="#4C8690"/>
</svg>
