<svg width="290" height="290" viewBox="0 0 290 290" fill="none" xmlns="http://www.w3.org/2000/svg">
<rect width="290" height="290" fill="white"/>
<path d="M207.921 125.904C208.114 123.428 208.3 120.953 208.492 118.437H218.496V161.663H208.492C208.3 159.153 208.114 156.651 207.908 153.955C207.33 154.822 206.897 155.557 206.374 156.231C203.7 159.634 200.125 161.587 195.917 162.24C188.409 163.409 181.946 161.243 176.769 155.64C173.627 152.243 171.873 148.146 171.207 143.567C170.485 138.637 171.145 133.907 173.42 129.493C176.906 122.748 182.414 118.623 190.004 117.66C195.339 116.979 200.262 118.224 204.456 121.765C205.831 122.927 206.897 124.35 207.928 125.904H207.921ZM194.232 152.566C201.321 152.566 206.814 147.059 206.801 139.978C206.787 132.958 201.273 127.485 194.212 127.485C187.068 127.485 181.478 132.999 181.478 140.039C181.478 147.08 187.075 152.573 194.239 152.566H194.232Z" fill="#3FC0BF"/>
<path d="M117.626 140.088C117.784 150.648 110.468 160.343 98.7458 162.213C91.781 163.32 85.2837 161.986 79.6528 157.545C74.8537 153.756 72.1516 148.751 71.4504 142.68C70.8453 137.4 71.8698 132.449 74.7368 127.96C78.202 122.542 83.1799 119.248 89.464 118.025C96.4013 116.677 102.926 117.77 108.708 121.992C113.776 125.691 116.636 130.765 117.481 136.973C117.53 137.324 117.598 137.681 117.612 138.032C117.633 138.72 117.612 139.407 117.612 140.095L117.626 140.088ZM107.106 140.102C107.106 132.972 101.716 127.492 94.6825 127.485C87.4701 127.478 81.8598 132.91 81.8529 139.923C81.846 147.094 87.3395 152.567 94.5381 152.574C101.654 152.574 107.099 147.176 107.099 140.108L107.106 140.102Z" fill="#3FC0BF"/>
<path d="M123.374 118.423H133.295C133.474 120.479 133.646 122.514 133.832 124.666C134.952 123.662 135.984 122.734 137.104 121.909C140.81 119.186 144.935 117.578 149.549 117.495C154.148 117.413 158.391 118.499 161.615 122.088C163.815 124.535 164.895 127.506 165.465 130.689C165.795 132.532 165.926 134.395 165.933 136.258C165.954 144.474 165.94 152.69 165.933 160.906C165.933 161.127 165.912 161.34 165.899 161.642H155.407C155.2 161.326 155.29 160.982 155.283 160.666C155.269 153.385 155.283 146.104 155.235 138.823C155.221 136.753 154.829 134.732 154.073 132.793C152.767 129.451 150.278 127.698 146.73 127.499C140.109 127.121 135.049 131.335 134.113 137.922C133.976 138.905 133.921 139.888 133.921 140.878C133.921 147.444 133.921 154.01 133.921 160.583V161.649H123.381V118.43L123.374 118.423Z" fill="#3FC0BF"/>
<path d="M91.7605 80.1891C91.3823 79.5153 91.8705 79.4465 92.1936 79.3022C95.5076 77.8377 98.8834 76.5382 102.349 75.4588C106.178 74.2625 110.07 73.3618 114.064 72.9424C119.365 72.3786 124.446 73.2311 129.342 75.3007C134.464 77.4595 139.036 80.5466 143.546 83.7299C147.83 86.7551 152.031 89.8972 156.665 92.393C161.051 94.7581 165.658 96.3395 170.725 96.1469C173.413 96.0438 176.081 95.7 178.728 95.2463C178.941 95.2119 179.161 95.1913 179.326 95.1706C179.574 95.3013 179.615 95.48 179.601 95.6794C179.567 95.7207 179.539 95.7894 179.498 95.8032C174.884 97.412 170.189 98.7252 165.341 99.4472C157.868 100.561 151.123 98.4502 144.715 94.8131C140.335 92.3242 136.3 89.3265 132.133 86.5282C127.774 83.5993 123.298 80.8835 118.258 79.2334C113.617 77.7208 108.887 77.3152 104.04 77.9477C100.148 78.4565 96.3051 79.2265 92.4824 80.086C92.2486 80.141 92.0011 80.1547 91.7467 80.196L91.7605 80.1891Z" fill="#3FC0BF"/>
<path d="M115.962 69.9309C115.776 69.7727 115.735 69.594 115.756 69.3602C115.838 69.3258 115.935 69.2708 116.031 69.2365C121.889 67.3595 127.829 65.8675 133.962 65.18C140.494 64.4443 146.53 66.0119 152.278 69.0096C157.311 71.636 161.862 74.9981 166.462 78.2845C170.106 80.8834 173.75 83.4823 177.772 85.4831C181.54 87.3601 185.48 88.5014 189.742 88.2126C192.513 88.027 195.243 87.6214 197.965 86.9407C198.027 87.0369 198.096 87.1194 198.137 87.2157C198.179 87.3051 198.185 87.4151 198.22 87.5595C195.834 88.5495 193.421 89.3608 190.987 90.0965C187.673 91.0934 184.304 91.8841 180.825 91.9597C175.744 92.0629 171.027 90.6465 166.558 88.302C162.069 85.9506 158.019 82.9254 153.859 80.0584C149.624 77.1432 145.293 74.3999 140.514 72.4404C134.058 69.7934 127.355 68.9477 120.431 69.539C118.932 69.6696 117.433 69.7934 115.955 69.924L115.962 69.9309Z" fill="#3FC0BF"/>
<path d="M113.79 95.2048C117.461 93.8641 121.029 92.5578 124.605 91.2515C126 92.2828 127.334 93.2935 128.689 94.2767C133.165 97.5356 137.847 100.437 143.106 102.28C146.125 103.338 149.219 104.012 152.43 104.122C156.995 104.274 161.443 103.572 165.83 102.403C166.146 102.321 166.462 102.225 166.765 102.142C166.978 102.252 167.019 102.445 167.067 102.623C166.957 102.892 166.696 102.94 166.483 103.043C162.275 105.037 157.889 106.501 153.31 107.361C150.876 107.814 148.421 108.083 145.953 108.124C137.744 108.268 130.194 106.02 123.202 101.778C119.957 99.8114 116.959 97.5012 113.79 95.198V95.2048Z" fill="#3FC0BF"/>
<path d="M169.199 183.121C170.814 185.631 172.451 188.161 174.183 190.856C175.909 188.195 177.559 185.651 179.223 183.087H182.551V198.653H179.312V189.336C179.257 189.323 179.195 189.302 179.14 189.288C177.717 191.523 176.294 193.757 174.885 195.978C174.438 196.122 174.032 196.061 173.544 196.033C172.127 193.805 170.69 191.55 169.116 189.082V198.66H165.836V183.128H169.192L169.199 183.121Z" fill="#3FC0BF"/>
<path d="M214.955 192.781V183.1H218.207V198.653H214.865C212.541 195.428 210.183 192.162 207.687 188.711V198.659H204.401V183.107H207.742C210.066 186.332 212.425 189.591 214.776 192.857C214.838 192.829 214.893 192.808 214.955 192.781Z" fill="#3FC0BF"/>
<path d="M161.526 190.966C161.725 195.009 158.04 199.051 153.44 198.928C148.944 198.811 145.534 195.38 145.506 190.787C145.479 186.524 149.143 182.75 153.743 182.86C158.095 182.963 161.739 186.669 161.526 190.959V190.966ZM153.488 195.744C156.087 195.765 158.177 193.64 158.205 190.952C158.232 188.223 156.156 186.029 153.537 186.022C150.958 186.022 148.827 188.147 148.861 190.863C148.896 193.799 150.938 195.662 153.488 195.744Z" fill="#3FC0BF"/>
<path d="M237.705 190.973C237.898 195.002 234.227 199.051 229.613 198.928C225.117 198.811 221.713 195.38 221.679 190.78C221.651 186.524 225.316 182.75 229.923 182.86C234.268 182.963 237.912 186.669 237.705 190.966V190.973ZM229.723 195.744C232.322 195.731 234.385 193.579 234.385 190.897C234.385 188.161 232.288 185.974 229.661 186.029C227.214 186.084 225.089 187.872 225.041 190.918C225 193.613 227.152 195.765 229.723 195.744Z" fill="#3FC0BF"/>
<path d="M139.538 193.524C140.577 195.284 141.574 196.975 142.632 198.77H138.837C137.943 197.25 137.036 195.696 136.128 194.142H133.969V198.79H130.717V183.128C131.35 182.97 132.003 183.059 132.656 183.059C134.354 183.059 136.08 182.936 137.751 183.142C140.116 183.431 141.986 185.218 142.323 187.391C142.674 189.653 142.234 191.798 139.848 193.29C139.758 193.345 139.683 193.421 139.538 193.531V193.524ZM134.011 186.208V190.939C135.035 190.939 136.018 191.007 136.995 190.925C138.246 190.815 139.071 189.818 139.071 188.58C139.071 187.336 138.253 186.339 137.001 186.229C136.032 186.146 135.042 186.215 134.017 186.215L134.011 186.208Z" fill="#3FC0BF"/>
<path d="M70.2268 195.634C69.8555 196.652 69.4911 197.649 69.113 198.68H65.5996C67.4835 193.441 69.3398 188.278 71.21 183.08H75.0946C76.951 188.23 78.8142 193.4 80.7049 198.653H77.226C76.8616 197.697 76.4765 196.679 76.0778 195.634H70.2268ZM71.375 192.382H74.9502C74.3589 190.746 73.7951 189.178 73.1557 187.398C72.5163 189.178 71.9594 190.739 71.375 192.382Z" fill="#3FC0BF"/>
<path d="M189.639 198.687H186.14C188.024 193.448 189.88 188.285 191.75 183.08H195.635C197.491 188.23 199.361 193.427 201.259 198.68H197.773C197.381 197.649 196.996 196.631 196.604 195.607H190.781C190.402 196.611 190.017 197.649 189.625 198.687H189.639ZM193.703 187.391C193.063 189.185 192.506 190.746 191.915 192.389H195.49C194.906 190.753 194.342 189.185 193.703 187.391Z" fill="#3FC0BF"/>
<path d="M135.839 220.18C136.149 219.623 136.272 219.135 136.265 218.619C136.052 218.337 135.722 218.55 135.434 218.323C135.241 217.986 135.337 217.56 135.399 217.079H139.222C139.346 218.935 138.864 220.613 137.902 222.318C138.686 223.102 139.49 223.906 140.315 224.724H137.036C136.795 224.518 136.52 224.291 136.197 224.023C134.842 224.752 133.385 225.02 131.851 224.944C131.075 224.903 130.325 224.772 129.61 224.47C126.777 223.267 126.214 219.877 128.503 217.815C128.682 217.65 128.874 217.498 129.101 217.319C128.647 216.646 128.104 216.061 127.939 215.25C127.609 213.648 128.496 211.97 130.133 211.345C132.628 210.389 135.64 210.843 136.74 213.517C136.946 214.019 137.091 214.542 137.001 215.147H134.223C133.997 214.171 133.385 213.627 132.305 213.696C131.494 213.744 131.191 213.951 130.861 214.789C130.896 215.112 130.978 215.449 131.219 215.683C132.745 217.175 134.278 218.66 135.853 220.187L135.839 220.18ZM133.969 221.837C132.883 220.847 131.831 219.877 130.793 218.921C129.94 219.623 129.809 220.269 130.291 221.053C130.916 222.07 132.594 222.455 133.969 221.837Z" fill="#3FC0BF"/>
<path d="M81.2068 219.822V217.086H88.8248C89.1135 220.716 87.0922 223.837 84.0807 224.683C80.5192 225.68 77.0128 224.043 75.6721 220.723C74.3038 217.333 75.6721 213.359 78.7454 211.75C81.9287 210.093 85.7789 210.905 87.5941 213.655C86.9753 214.308 86.2052 214.782 85.4627 215.387C84.6307 214.459 83.7301 213.703 82.41 213.682C81.468 213.668 80.6155 213.888 79.8386 214.404C78.3741 215.394 77.7278 217.519 78.3053 219.416C78.8141 221.08 80.1411 222.105 81.8187 222.146C83.6613 222.187 85.0364 221.355 85.5658 219.822H81.2137H81.2068Z" fill="#3FC0BF"/>
<path d="M55.5477 183.107C56.7097 186.751 57.851 190.34 58.9992 193.936C59.0748 193.943 59.1436 193.957 59.2192 193.964C60.3812 190.34 61.5362 186.717 62.6982 183.087H66.2184C64.5064 188.312 62.8082 193.482 61.1031 198.673H57.1084C55.4171 193.524 53.7189 188.353 52 183.107H55.5546H55.5477Z" fill="#3FC0BF"/>
<path d="M113.714 186.16V189.275H118.218V192.437H113.742V195.552H119.414V198.701H110.435V183.114H119.407V186.16H113.721H113.714Z" fill="#3FC0BF"/>
<path d="M158.693 220.131C159.58 221.651 160.446 223.129 161.361 224.697H158.06C157.277 223.39 156.465 222.036 155.661 220.688H153.756V224.697H150.862V211.083C152.374 211.083 153.88 211.083 155.379 211.083C156.397 211.083 157.4 211.063 158.363 211.503C159.965 212.245 160.948 213.455 161.147 215.202C161.374 217.154 160.742 218.77 159.044 219.884C158.934 219.953 158.83 220.035 158.686 220.131H158.693ZM153.798 217.849C154.801 217.849 155.73 217.904 156.658 217.835C157.593 217.759 158.219 216.934 158.232 215.931C158.253 214.872 157.655 213.992 156.699 213.909C155.757 213.827 154.795 213.889 153.798 213.889V217.849Z" fill="#3FC0BF"/>
<path d="M87.1334 195.572H93.5275V198.68H83.8882V183.08H87.1403V195.579L87.1334 195.572Z" fill="#3FC0BF"/>
<path d="M97.3916 198.673V183.087H100.637V195.531H107.038V198.673H97.3916Z" fill="#3FC0BF"/>
<path d="M96.5526 224.937C93.5274 224.937 91.2998 222.806 91.3067 219.905C91.3067 216.976 93.5343 214.879 96.642 214.879C99.6809 214.879 101.819 216.976 101.812 219.946C101.812 222.861 99.6191 224.937 96.5526 224.937ZM98.8559 219.918C98.8628 218.591 97.9208 217.643 96.5939 217.643C95.26 217.643 94.2631 218.578 94.2356 219.856C94.2081 221.094 95.2532 222.125 96.532 222.146C97.8658 222.16 98.849 221.225 98.8559 219.918Z" fill="#3FC0BF"/>
<path d="M192.183 224.937C189.158 224.937 186.937 222.799 186.944 219.898C186.944 216.969 189.172 214.879 192.286 214.879C195.318 214.879 197.456 216.983 197.45 219.953C197.45 222.868 195.256 224.937 192.183 224.937ZM192.252 217.643C190.89 217.629 189.859 218.612 189.866 219.918C189.873 221.122 190.897 222.125 192.142 222.146C193.482 222.173 194.472 221.245 194.486 219.946C194.5 218.619 193.572 217.656 192.245 217.643H192.252Z" fill="#3FC0BF"/>
<path d="M170.539 221.341C171.295 221.548 172.093 221.39 172.815 221.665C172.836 223.487 170.594 225.006 168.043 224.937C165.314 224.862 163.148 222.352 163.361 219.519C163.588 216.522 165.878 214.617 168.923 214.892C171.584 215.133 173.489 217.794 173.062 220.798H166.352C166.716 222.572 168.786 222.827 170.525 221.348L170.539 221.341ZM170.195 218.798C169.81 217.794 169.164 217.429 168.023 217.512C167.081 217.574 166.586 217.952 166.379 218.798H170.188H170.195Z" fill="#3FC0BF"/>
<path d="M175.593 221.692H178.412C179.361 222.675 180.529 222.82 181.416 222.043C181.389 221.514 180.949 221.438 180.571 221.307C179.539 220.95 178.432 220.805 177.456 220.269C176.081 219.513 175.538 218.213 176.026 216.893C176.28 216.219 176.768 215.738 177.374 215.388C178.914 214.494 181.444 214.672 182.833 215.766C183.513 216.302 183.878 217.01 183.926 217.918C183.445 218.09 182.984 217.993 182.53 218.007C182.063 218.028 181.595 218.007 181.155 218.007C180.351 217.12 179.553 217.045 178.845 217.773C178.989 218.206 179.409 218.248 179.752 218.371C180.577 218.667 181.43 218.901 182.234 219.245C183.768 219.898 184.496 220.97 184.366 222.229C184.228 223.535 183.362 224.47 181.753 224.8C180.234 225.109 178.694 225.123 177.25 224.381C176.184 223.831 175.641 222.944 175.593 221.685V221.692Z" fill="#3FC0BF"/>
<path d="M116.76 211.503V213.847C116.017 213.799 115.275 213.407 114.629 214.005C114.347 214.267 114.25 214.59 114.429 215.051H116.712C116.808 215.972 116.781 216.804 116.739 217.67C115.962 217.952 115.179 217.677 114.34 217.883V224.71H111.404V217.986C111.019 217.677 110.613 217.918 110.27 217.691V215.167C110.558 214.906 110.957 215.154 111.342 214.947C111.363 213.4 111.617 211.867 113.288 211.166C114.457 210.671 115.646 210.822 116.767 211.51L116.76 211.503Z" fill="#3FC0BF"/>
<path d="M213.195 224.731H210.341V217.876C209.791 217.601 209.276 217.828 208.732 217.656V215.14C209.172 214.893 209.722 215.174 210.3 214.948V212.259C211.276 212.156 212.163 212.17 213.16 212.245V215.044H215.422V217.732H213.201V224.731H213.195Z" fill="#3FC0BF"/>
<path d="M107.368 224.731H104.625V210.437H107.368V224.731Z" fill="#3FC0BF"/>
<path d="M205.989 217.773C204.27 217.464 203.638 217.945 203.349 219.629C203.115 220.991 203.273 222.366 203.218 223.734C203.205 224.057 203.287 224.387 203.129 224.745H200.379V215.112H202.998C203.081 215.277 203.177 215.49 203.308 215.759C204.195 214.975 205.116 214.535 206.312 215.16C206.381 216.027 206.12 216.866 205.996 217.78L205.989 217.773Z" fill="#3FC0BF"/>
</svg>
