<svg width="290" height="290" viewBox="0 0 290 290" fill="none" xmlns="http://www.w3.org/2000/svg">
<rect width="290" height="290" fill="white"/>
<path d="M152.794 76.3483C152.139 76.4465 151.508 78.8661 150.248 80.125C149.324 81.0339 148.167 80.9786 147.555 82.1024C147.322 82.52 147.396 83.2385 147.133 83.9263C146.619 85.3019 144.801 85.4247 144.801 86.9231C144.795 88.5443 146.319 88.8513 147.635 89.9997C148.663 90.927 148.767 91.5595 150.009 92.0078C151.074 92.3701 152.653 91.1849 154.079 91.6087C155.248 91.9587 156.367 92.2105 156.631 93.4202C156.863 94.5318 156.612 96.2574 155.199 96.0547C154.721 95.9995 152.647 95.2994 150.101 95.5696C147.029 95.9196 143.522 96.9268 143.179 100.366C142.99 102.288 145.358 104.554 147.647 104.093C149.232 103.78 148.479 101.907 149.342 100.998C150.474 99.8314 156.869 105.064 162.818 105.064C165.321 105.064 167.181 104.431 169.035 102.484C169.207 102.337 169.421 102.018 169.684 101.999C169.935 102.018 170.376 102.269 170.522 102.374C175.314 106.237 178.931 113.986 196.538 114.079C199.01 114.091 201.837 115.276 204.138 117.389C206.195 119.292 207.394 122.258 208.563 125.267C210.325 129.781 213.483 134.172 218.269 139.06C218.532 139.324 222.473 142.395 222.785 142.628C222.834 142.659 223.128 143.353 223.024 143.74C222.908 146.669 222.485 155.186 228.813 155.573C230.362 155.653 229.958 154.56 229.958 153.811C229.958 152.325 229.682 150.851 230.466 149.334C231.53 147.246 228.201 146.282 228.299 141.762C228.366 138.397 225.551 138.968 224.119 136.401C223.293 134.915 222.565 134.123 222.614 132.305C222.932 122.074 220.441 115.35 219.199 113.698C218.232 112.451 217.43 111.954 218.318 111.377C223.599 107.876 224.799 104.621 224.799 104.621C227.608 97.9953 230.135 91.9464 233.617 89.2812C234.321 88.7347 236.12 87.3836 237.222 86.8555C240.471 85.3203 242.185 84.3868 243.127 83.4657C244.621 82.0041 245.802 78.9582 244.37 77.1098C242.589 74.8314 239.511 76.6369 238.152 77.4475C228.44 83.2323 227.008 93.4325 223.648 99.291C220.968 103.97 216.604 107.409 212.7 107.692C209.775 107.907 206.623 107.317 203.484 105.936C195.852 102.576 191.672 98.2409 190.687 97.4733C188.637 95.8828 172.713 80.1987 159.813 79.56C159.813 79.56 158.209 76.3421 157.812 76.293C156.869 76.1702 155.902 78.2151 155.211 78.4546C154.562 78.6696 153.467 76.2439 152.806 76.3483M96.0021 169.955C94.7904 169.925 93.7562 168.924 93.7562 167.689V127.312H80.5007V171.822C80.5007 174.002 82.2632 175.783 84.4235 175.783H107.605C109.784 175.783 111.522 174.002 111.522 171.822V127.312H98.2725L98.2603 167.689C98.2603 168.924 97.2261 169.925 96.0082 169.955M140.407 127.319H120.334C117.96 127.319 116.026 129.259 116.026 131.666V175.789H129.3V135.314C129.312 134.074 130.31 133.091 131.54 133.091C132.77 133.091 133.773 134.049 133.804 135.277V175.783H147.023V135.271C147.041 134.043 148.032 133.085 149.269 133.085C150.505 133.085 151.508 134.068 151.521 135.308V175.783H164.794V131.66C164.794 129.253 162.854 127.312 160.48 127.312H140.407V127.319ZM62.7534 135.394C62.7657 134.049 61.6702 133.085 60.5075 133.085H58.2554V157.6H60.5075C61.6764 157.6 62.7657 156.666 62.7534 155.322V135.388V135.394ZM71.6516 163.606H58.2554V175.783H45V127.312H71.7372C74.1301 127.312 75.9966 129.265 75.9966 131.679V159.239C75.9966 161.659 74.0566 163.606 71.6516 163.606ZM210.276 164.944C207.614 164.944 205.375 167.253 205.375 170.054C205.375 172.854 207.608 175.157 210.362 175.157C213.116 175.157 215.295 172.866 215.295 170.054C215.295 167.241 213.085 164.944 210.362 164.944H210.276ZM216.249 170.041C216.249 173.333 213.618 176.011 210.362 176.011C207.106 176.011 204.432 173.351 204.432 170.041C204.432 166.731 207.076 164.079 210.264 164.079C213.618 164.079 216.249 166.713 216.249 170.041Z" fill="#010101"/>
<path d="M209.75 169.661C210.674 169.661 211.158 169.335 211.158 168.678C211.158 168.095 210.687 167.794 209.793 167.794H209.53V169.661H209.75ZM213.147 173.493H211.562L209.524 170.772V173.493H208.233V166.621H209.591C211.439 166.621 212.418 167.321 212.418 168.66C212.418 169.55 211.837 170.342 211.029 170.582L210.937 170.619L213.141 173.493H213.147ZM187.046 157.612V135.296C187.015 134.061 186.024 133.116 184.788 133.116C183.552 133.116 182.554 134.098 182.542 135.333V157.618H187.046V157.612ZM187.046 175.783V163.618H182.542V175.783H169.292V131.66C169.292 129.253 171.226 127.312 173.601 127.312H195.981C198.361 127.312 200.295 129.253 200.295 131.66V175.783H187.04H187.046Z" fill="#010101"/>
</svg>
